
<svg xmlns="http://www.w3.org/2000/svg" version="1.1" xmlns:xlink="http://www.w3.org/1999/xlink" preserveAspectRatio="none" x="0px" y="0px" width="670px" height="90px" viewBox="0 0 670 90">
<defs>
<filter id="Filter_1" x="-20%" y="-31.82182022612753%" width="140%" height="163.64364045225506%" color-interpolation-filters="sRGB">
<feFlood flood-color="#000000" flood-opacity="1" in="SourceGraphic" result="result1"/>

<feGaussianBlur in="SourceGraphic" stdDeviation="5,5" result="result2"/>

<feComposite in2="result2" in="result1" operator="in" result="result3"/>

<feComposite in2="result3" in="SourceGraphic" operator="over" result="result4"/>
</filter>

<g id="Symbol_5_0_Layer0_0_MEMBER_0_MEMBER_0_FILL">
<path fill="#B33C5D" stroke="none" d="
M 626.15 21.6
L 626.15 81.05 662.75 81.05 647.8 52 662.75 21.6 626.15 21.6 Z"/>
</g>

<g id="Symbol_5_0_Layer0_0_MEMBER_0_MEMBER_1_FILL">
<path fill="#B33C5D" stroke="none" d="
M 36.6 22.2
L 0 22.2 14.95 52.65 0 81.7 36.6 81.7 36.6 22.2 Z"/>
</g>

<g id="Symbol_5_0_Layer0_0_MEMBER_0_MEMBER_2_FILL">
<path fill="#D74870" stroke="none" d="
M 636.85 75.2
L 636.85 0 25.75 0 25.75 75.2 636.85 75.2 Z"/>
</g>
</defs>

<g filter="url(#Filter_1)" transform="matrix( 1, 0, 0, 1, 0,0) ">
<g transform="matrix( 1, 0, 0, 1, 3.65,4.15) ">
<g transform="matrix( 1, 0, 0, 1, 0,0) ">
<use xlink:href="#Symbol_5_0_Layer0_0_MEMBER_0_MEMBER_0_FILL"/>
</g>

<g transform="matrix( 1, 0, 0, 1, 0,0) ">
<use xlink:href="#Symbol_5_0_Layer0_0_MEMBER_0_MEMBER_1_FILL"/>
</g>

<g transform="matrix( 1, 0, 0, 1, 0,0) ">
<use xlink:href="#Symbol_5_0_Layer0_0_MEMBER_0_MEMBER_2_FILL"/>
</g>
</g>
</g>
</svg>
