
<svg xmlns="http://www.w3.org/2000/svg" version="1.1" xmlns:xlink="http://www.w3.org/1999/xlink" preserveAspectRatio="none" x="0px" y="0px" width="187px" height="164px" viewBox="0 0 187 164">
<defs>
<filter id="Filter_1" x="-20%" y="-23.378612746865223%" width="140%" height="146.75722549373046%" color-interpolation-filters="sRGB">
<feGaussianBlur in="SourceGraphic" stdDeviation="6.666666666666667,1.3333333333333333" result="result1"/>

<feColorMatrix in="result1" type="matrix" values="1 0 0 0 0 0 1 0 0 0 0 0 1 0 0 0 0 0 0.08 0" result="result2"/>

<feColorMatrix in="result2" type="matrix" values="0 0 0 0 255 0 0 0 0 255 0 0 0 0 255 0 0 0 255 0" result="result3"/>

<feComposite in2="result3" in="BackgroundImage" operator="in" result="result4"/>

<feBlend mode="multiply" in2="result4" in="result2" result="result5"/>
</filter>

<g id="grafika_characters_wiewior_squirrel_tail_0_Layer0_0_FILL">
<path fill="#3A2210" stroke="none" d="
M 43.8 -65.8
Q 47.5 -67.45 47.95 -69.4 48.4 -71.5 46 -73.3 43.6 -75.1 39.1 -76.1 24.7 -79.45 9.1 -75.3 -9.85 -70.15 -12.7 -56 -14.6 -46.5 -4.15 -29.65 2.15 -19.6 3.25 -17.5 6.55 -11.05 6.2 -7 5.8 -2.3 -1.75 -1.3
L -1.9 1.05
Q 1.25 2.6 7.55 2.25 14.2 1.85 20.85 -0.45 37.95 -6.45 41.1 -19.85 42.55 -26 39.8 -30.35 38.1 -33.15 33 -36.75 27.55 -40.7 25.9 -42.8 22.75 -46.85 23.55 -52.35 24.45 -58.6 35.85 -62.8 43.45 -65.65 43.8 -65.8
M 45.95 -70.3
Q 45.95 -68.7 42.2 -66.9 37 -64.8 34.05 -63.4 22.1 -57.8 22.1 -49.05 22.1 -44.85 25.05 -41.35 26.9 -39.1 31.5 -35.7 36.3 -32.15 37.9 -30.4 40.85 -27.2 40.85 -23.55 40.85 -15.8 33.35 -8.9 22.6 0.9 1.2 1.05
L 0.85 -0.45
Q 2.15 -0.8 3.55 -1.65 6.35 -3.25 7.05 -5.45 8.25 -9.15 5.75 -14.65 4.4 -17.5 -0.6 -25.55 -10.95 -42 -10.95 -53 -10.95 -63.1 -0.8 -69.75 9.05 -76.25 23.25 -76.25 31.65 -76.25 38.65 -74.5 45.95 -72.7 45.95 -70.3 Z"/>

<path fill="#E16905" stroke="none" d="
M 42.2 -66.9
Q 45.95 -68.7 45.95 -70.3 45.95 -72.7 38.65 -74.5 31.65 -76.25 23.25 -76.25 9.05 -76.25 -0.8 -69.75 -10.95 -63.1 -10.95 -53 -10.95 -42 -0.6 -25.55 4.4 -17.5 5.75 -14.65 8.25 -9.15 7.05 -5.45 6.35 -3.25 3.55 -1.65 2.15 -0.8 0.85 -0.45
L 1.2 1.05
Q 22.6 0.9 33.35 -8.9 40.85 -15.8 40.85 -23.55 40.85 -27.2 37.9 -30.4 36.3 -32.15 31.5 -35.7 26.9 -39.1 25.05 -41.35 22.1 -44.85 22.1 -49.05 22.1 -57.8 34.05 -63.4 37 -64.8 42.2 -66.9
M 21.35 -71.95
Q 26.7 -71.95 29.75 -70.6 33 -69.15 32.95 -66.5 32.85 -64.45 29.35 -62.3 24.4 -59.7 21.6 -58.25 10.3 -52.3 10.1 -44.8 9.85 -37.25 18.3 -30.6 23.1 -26.85 24.1 -25.8 26.75 -23.05 26.65 -20.1 26.45 -12.5 19.2 -8.65 15.6 -6.7 12 -6.3 14.2 -9.95 14.3 -13.3 14.4 -17.1 10.95 -21.85 9.15 -24.3 3.2 -30.7 -2.2 -36.55 -4.55 -40.2 -8.15 -45.8 -8.15 -50.85 -8.15 -60.05 0.8 -66.15 9.4 -71.95 21.35 -71.95 Z"/>

<path fill="#C25814" stroke="none" d="
M 29.75 -70.6
Q 26.7 -71.95 21.35 -71.95 9.4 -71.95 0.8 -66.15 -8.15 -60.05 -8.15 -50.85 -8.15 -45.8 -4.55 -40.2 -2.2 -36.55 3.2 -30.7 9.15 -24.3 10.95 -21.85 14.4 -17.1 14.3 -13.3 14.2 -9.95 12 -6.3 15.6 -6.7 19.2 -8.65 26.45 -12.5 26.65 -20.1 26.75 -23.05 24.1 -25.8 23.1 -26.85 18.3 -30.6 9.85 -37.25 10.1 -44.8 10.3 -52.3 21.6 -58.25 24.4 -59.7 29.35 -62.3 32.85 -64.45 32.95 -66.5 33 -69.15 29.75 -70.6 Z"/>
</g>

<g id="grafika_characters_wiewior_squirrel_calf_0_Layer0_0_FILL">
<path fill="#D45300" stroke="none" d="
M 8.05 16.05
Q 8.05 15.95 8 15.9 5.3 13.25 3.3 10.1 3.8 11.4 4.2 12.95 5.05 15.9 6.2 19.65
L 8 19.2 8.05 19.2
Q 8.15 17.95 8.05 16.05 Z"/>

<path fill="#3A2210" stroke="none" d="
M 1.9 5.95
Q 1.6 5.1 1.4 4.5 1.2 3.85 0.7 3.1 0.95 4.9 0.95 6.85 1.25 8 1.7 9.4 1.85 10.05 2 10.7 2.6 12.5 3.25 14.75 5.45 22.1 6.05 24.3 8.4 22.95 9.05 21.7 9.2 21.4 9.25 20.85 9.4 19.9 9.35 18.1 9.35 17.55 9.35 16.95 9.35 15.95 9.35 14.9 9.35 13.8 9.1 11 8.85 8.2 8.45 7.5 8.1 6.7 7.75 5.6 7.75 6.9 7.85 8.6 8 12.95 8 15.9 8.05 15.95 8.05 16.05 8.15 17.95 8.05 19.2
L 8 19.2 6.2 19.65
Q 5.05 15.9 4.2 12.95 3.8 11.4 3.3 10.1 2.55 7.5 1.9 5.95 Z"/>

<path fill="#E16905" stroke="none" d="
M 2.4 0.1
Q 2.15 0.45 2 1.4 1.85 3.6 5.65 10.1 6.1 7.2 5.55 4.75 4.8 1.55 2.55 0.1 2.45 0.1 2.4 0.1 Z"/>

<path fill="#C25814" stroke="none" d="
M 7.75 5.6
Q 7.3 4 7 3.5 5.95 1.5 3.85 0 3.8 0 3.75 0 3.1 0 2.55 0.1 4.8 1.55 5.55 4.75 6.1 7.2 5.65 10.1 1.85 3.6 2 1.4 2.15 0.45 2.4 0.1 1.2 0.3 0.85 0.85 0.8 1.65 0.75 2 0.7 2.5 0.7 3.05
L 0.7 3.1
Q 1.2 3.85 1.4 4.5 1.6 5.1 1.9 5.95 2.55 7.5 3.3 10.1 5.3 13.25 8 15.9 8 12.95 7.85 8.6 7.75 6.9 7.75 5.6 Z"/>
</g>

<g id="grafika_characters_wiewior_squirrel_calf_0_Layer0_1_FILL">
<path fill="#3A2210" stroke="none" d="
M 2.95 23
Q 1.95 23.3 0.1 23.95 -0.15 24.25 0.35 24.5 0.7 24.65 1.25 24.8 1.9 24.95 2.55 24.65 3.35 24.35 3.45 24.3
L 5.45 23.25 5.65 23.95 4.75 25.6
Q 4.95 26.25 5.5 26.25 6.3 26.25 6.65 26.1 6.75 26.05 7.5 25.55 7.5 25.35 7.5 25.25 7.55 24.95 7.55 24.55 7.6 24.45 7.6 24.35
L 7.65 24.3
Q 7.8 24 7.85 23.9 8.05 23.3 8.35 22.95 9.65 22.95 10.8 23.15 10.75 23.2 10.15 24.3 9.65 25.4 11.55 25.2
L 11.6 25.2
Q 12 25.05 12.4 24.95 12.65 24.75 12.9 24.65 13 24.55 13.1 24.5 13.85 23.7 13.2 22.95 13.05 22.85 12.9 22.75 12.6 22.45 12.1 22.2
L 12.95 22.4
Q 13 22.45 13.05 22.5
L 13.15 22.5
Q 13.9 22.85 14.65 24 15.3 25 16.65 25 17.45 25 17.8 24.8 18.25 24.55 18.45 24.4 18.75 24.15 18.8 23.9 18.8 23.85 18.8 23.8 16.7 22.7 15.75 21.25 15.55 21.15 15.25 21.1 13.75 20.6 11.8 20.6 10.9 20.6 10.05 20.65 5.3 20.8 3.9 22.05 3.5 22.4 2.95 23 Z"/>
</g>

<g id="grafika_characters_wiewior_squirrel_leg_0_Layer0_0_FILL">
<path fill="#3A2210" stroke="none" d="
M 6.85 22.45
Q 8.3 22.55 9.4 21.4 12.8 18 13.3 12.8 13.9 6.3 8.7 1.1 7.85 0.25 7.3 0 5.95 1.05 5.05 1.95 1.3 5.7 0.3 10.1 -1 16.1 3.65 20.75 5.25 22.35 6.85 22.45 Z"/>
</g>

<g id="grafika_characters_wiewior_squirrel_leg_0_Layer0_0_MEMBER_0_FILL">
<path fill="#C25814" stroke="none" d="
M 6.3 2.15
Q 5.55 2.8 4.9 3.55 2.95 10.6 2.55 17.9 2.85 18.7 3.35 19.2 5.45 20.8 6.8 21.15 7.45 21.3 7.9 21.15 8.9 18.15 9.3 14.7 9.8 7.95 6.7 2.35
L 6.3 2.15 Z"/>

<path fill="#E16905" stroke="none" d="
M 4 5.05
Q 2.4 7.85 2 11.85 1.65 15.7 2.45 17.8 2.5 17.85 2.55 17.9 2.95 10.6 4.9 3.55 4.45 4.2 4 5.05 Z"/>

<path fill="#D45300" stroke="none" d="
M 7.1 2.65
L 6.7 2.35
Q 9.8 7.95 9.3 14.7 8.9 18.15 7.9 21.15 8.25 21.1 8.5 20.85 12.85 16.5 11.55 10.4 10.65 6 8.2 3.55 7.65 3 7.1 2.65 Z"/>
</g>

<g id="grafika_characters_wiewior_squirrel_foreArm_0_Layer0_0_FILL">
<path fill="#D45300" stroke="none" d="
M 4.8 13.5
Q 3.75 18.55 2 23.45 2 23.6 2 23.7 2.2 26.05 2.35 27.5
L 2.4 27.5 3.9 26.75
Q 4.25 21.55 4.5 17.5 4.6 15.35 4.8 13.5 Z"/>

<path fill="#E16905" stroke="none" d="
M 4.65 2.4
Q 4.3865234375 2.065625 4.05 1.8 3.9490234375 1.7326171875 3.75 1.65 2.530078125 4.6263671875 2.4 8.4 2.3 11.8 2.95 15.1 4.8978515625 5.17109375 4.65 2.4 Z"/>

<path fill="#3A2210" stroke="none" d="
M 5.6 4.05
Q 5.5201171875 4.8462890625 5.5 5.45 5.45 6.3 5.3 7.5 5.05 9.85 4.8 13.5 4.6 15.35 4.5 17.5 4.25 21.55 3.9 26.75
L 2.4 27.5 2.35 27.5
Q 2.2 26.05 2 23.7 2 23.6 2 23.45 1.6 19.95 1.2 14.65 0.6 7.3 0 5.5 -0.05 9.3 0.65 19.65 0.95 23.2 1.15 25.65 1.25 26.35 1.25 27.05 1.55 29.15 1.75 30.25 1.85 30.9 2.05 31.15 2.7 32.25 4.6 32.35 4.75 29.3 5.45 19.05 5.9857421875 11.0533203125 6.55 6.9 6.49921875 6.7255859375 6.45 6.6 5.974609375 4.9361328125 5.6 4.05 Z"/>

<path fill="#C25814" stroke="none" d="
M 5.5 5.45
Q 5.5201171875 4.8462890625 5.6 4.05 5.6171875 4.041796875 5.6 4 5.2125 3.0634765625 4.65 2.4 4.8978515625 5.17109375 2.95 15.1 2.3 11.8 2.4 8.4 2.530078125 4.6263671875 3.75 1.65 3.362890625 1.465234375 2.6 1.2 2.52421875 1.2716796875 2.45 1.35 1.1 2.6 0 5.5 0.6 7.3 1.2 14.65 1.6 19.95 2 23.45 3.75 18.55 4.8 13.5 5.05 9.85 5.3 7.5 5.45 6.3 5.5 5.45 Z"/>
</g>

<g id="grafika_characters_wiewior_squirrel_handRed_0_Layer1_0_FILL">
<path fill="#3A2210" stroke="none" d="
M 2.35 0.6
Q 1.300390625 1.7005859375 0.95 2.8 0.8400390625 3.2541015625 1.15 3.95 1.3154296875 3.9962890625 1.5 4.1 1.85 4.35 1.85 4.7 1.85 4.8818359375 1.8 5 2.034765625 5.348828125 2.3 5.7 2.4998046875 5.7181640625 2.65 5.8 3.086328125 6.0423828125 3.1 6.45
L 3.55 6.75
Q 4.47265625 7.2208984375 5.65 6.6 7.5638671875 2.2078125 6.4 0.55 5.68671875 -0.46875 3.3 -0.6 3.0974609375 -0.1830078125 2.35 0.6 Z"/>
</g>

<g id="grafika_characters_wiewior_squirrel_handRed_0_Layer1_1_FILL">
<path fill="#5D3B21" stroke="none" d="
M 6.25 3.5
Q 6.103125 3.2361328125 5.5 3.15 4.98828125 3.059765625 4.3 3.2 4.546875 3.0974609375 4.75 2.95 3.69765625 3.1322265625 2.9 3.85 2.85 3.85 2.85 3.9 4.5015625 3.9734375 6.25 3.5
M 7.45 4.6
Q 7.281640625 4.5044921875 6.9 4.45 6.612890625 4.3994140625 6.25 4.4 6.0125 4.598828125 5.8 4.85 5.75 4.85 5.7 4.85 6.5869140625 4.943359375 7.45 4.6
M 5.75 0.85
Q 5.698046875 0.837890625 5.6 0.8 5.433203125 0.8 5.2 0.8
L 5.15 0.8
Q 4.2708984375 0.8125 3.25 1.25
L 3.2 1.25
Q 2.9595703125 1.3677734375 2.7 1.5 2.6873046875 1.5197265625 2.65 1.55 2.2859375 1.7353515625 2 1.95 1.896875 2.0263671875 1.8 2.1 1.6486328125 2.2919921875 1.5 2.5
L 1.9 2.15 1.9 2.2
Q 1.9 2.25 1.9 2.3 4.166015625 2.5361328125 5.75 0.85
M 4.25 -1.9
Q 4.349609375 -1.6005859375 4.55 -1.35 5.05 -1.2 5.35 -1.55 5.472265625 -1.7853515625 5.55 -2 5.44296875 -2.2291015625 5.3 -2.45 4.95 -2.55 4.65 -2.25 4.4453125 -2.0111328125 4.25 -1.9 Z"/>

<path fill="#3A2210" stroke="none" d="
M 5.8 2.25
Q 6.4 1.65 6.25 1.2 6.126953125 0.95390625 5.75 0.85 4.166015625 2.5361328125 1.9 2.3 1.9 2.25 1.9 2.2
L 1.9 2.15 1.5 2.5
Q 1.6486328125 2.2919921875 1.8 2.1 1.7775390625 2.1259765625 1.75 2.15 1.67421875 2.22578125 1.6 2.3 0.95 2.9 1.15 3.3 1.3 3.75 2.2 3.75 2.635546875 3.75 3.1 3.6 2.27734375 4.133984375 2.1 4.4 1.8 4.6 1.95 4.95 2.05 5.3 2.1 5.35 2.3 5.4 3.45 5.45
L 3.95 5.3
Q 3.60703125 5.539453125 3.5 5.7 3.2 5.9 3.35 6.25 3.45 6.6 3.5 6.65 3.7 6.7 4.85 6.75
L 6.95 6.1
Q 7.95 5.7 7.7 4.9 7.6544921875 4.7408203125 7.45 4.6 6.5869140625 4.943359375 5.7 4.85 5.75 4.85 5.8 4.85 6.0125 4.598828125 6.25 4.4 6.1986328125 4.41875 6.1 4.4 6.4544921875 4.094140625 6.3 3.6 6.2861328125 3.5515625 6.25 3.5 4.5015625 3.9734375 2.85 3.9 2.85 3.85 2.9 3.85 3.69765625 3.1322265625 4.75 2.95 5.3623046875 2.6541015625 5.8 2.25
M 4.55 -1.35
Q 4.349609375 -1.6005859375 4.25 -1.9 4.2134765625 -1.8318359375 4.15 -1.8 4 -1.65 4 -0.95 4 -0.1302734375 4.5 0.1 4.785546875 0.25 5.15 0.25 5.377734375 0.25 5.5 0.15 5.85 -0.0751953125 5.85 -0.75 5.85 -1.3791015625 5.55 -2 5.472265625 -1.7853515625 5.35 -1.55 5.05 -1.2 4.55 -1.35 Z"/>
</g>

<g id="grafika_characters_wiewior_squirrel_handRed_0_Layer0_0_FILL">
<path fill="#836046" stroke="none" d="
M -1.8 2.15
Q -2.5484375 2.1783203125 -3.25 2.55 -4.8091796875 3.3578125 -6.1 5.85 -6.2828125 6.1904296875 -6.45 6.55 -8.15 10.1 -8.15 12.75
L -7.95 14.3 -7.85 14.3
Q -7.3 10.25 -6.6 8.15 -5.45 4.5 -1.8 2.15
M 5.5 4.35
Q 5.6 4.15 5.6 4 5.6 3.7962890625 5.5 3.55 5.3337890625 3.192578125 5.15 2.85 4.65 2 4.1 2.15
L 3.95 2.25
Q 4.45 3.35 4.6 3.55 4.9 4 5.5 4.35
M 2.75 -0.3
Q 1.58984375 -0.7640625 1.35 -0.85
L 1.35 -0.85
Q 1.15 -0.8 1.1 -0.7 1.4369140625 -0.411328125 3.05 0.35 2.7375 0.266796875 2.35 0.25
L 2.3 0.35
Q 4.3 1.85 4.6 2.15 4.6712890625 2.126171875 4.7 2.05 4.7380859375 2.015625 4.75 1.95 4.75 1.8978515625 4.75 1.85 4.75 1.25 4.15 0.8 3.7966796875 0.528125 3.3 0.4 3.3 0.35390625 3.3 0.3 3.3 -0.1 2.75 -0.3
M -2.8 30.85
Q -3.9646484375 30.55546875 -4.7 30 -4.951171875 29.856640625 -5.15 29.65 -5.3896484375 29.3966796875 -5.55 29.1 -5.5896484375 28.92578125 -5.65 28.75 -6.0396484375 27.9220703125 -6.35 26.95 -6.6876953125 26.4748046875 -7.1 26.2
L -7.2 26.4
Q -7.15 26.45 -6.35 29.15 -4.85 31.8 -1.6 31.8 -0.6 31.8 -0.2 31.55
L -0.2 31.5 -0.25 31.2
Q -1.6955078125 31.116015625 -2.8 30.85
M 2.55 33.25
Q 3.5 32.85 3.65 32.3 3.6130859375 32.292578125 3.55 32.3 2.7908203125 33 1.85 33 1.7 32.9 1.65 32.9 1.6 32.95 1.6 32.7 -0.1236328125 33.160546875 -1.1 33.3 -1.2068359375 33.33671875 -1.3 33.35 -1.05 33.7 0.1 33.7 1.55 33.7 2.55 33.25
M 6.25 7.95
Q 6.103125 7.98671875 6.05 8.05 6.01328125 8.11015625 6 8.15 6.033203125 8.173828125 6.05 8.2 6.3689453125 8.485546875 6.55 9.3 6.7 10.05 7.2 10.3 7.05 9.5 6.95 9.05 6.8 8.3 6.25 7.95
M 6.1 5.65
Q 5.55 4.45 5.1 4.4
L 4.8 4.55
Q 5.05 5 5.55 6 6.05 6.95 6.55 7.4 6.65 7.3 6.65 7.05 6.65 6.7 6.1 5.65
M 5.3 0.95
L 5.25 1.05
Q 5.5 1.2 6.15 1.75 6.7 2.25 7.2 2.45 7.35 2.55 7.35 2.3 7.35 1.95 6.6 1.35 5.8 0.75 5.3 0.95
M 12.65 15.55
Q 12.6328125 15.409765625 12.6 15.25 12.2 13.2 11.75 12.6 11.8 12.8 11.7 13.15
L 12.15 15.95
Q 12.2916015625 16.8787109375 12.4 17.55 12.566796875 16.641796875 12.65 15.55
M 10.65 7.35
Q 10.591015625 6.844140625 10.5 6.45 10.1697265625 5.15390625 9.6 4.4 9.0876953125 3.6458984375 8.35 3.4 8.3984375 3.5318359375 8.45 3.65 8.1267578125 3.2796875 7.7 3.05 7.4 3.1 7.25 3.2 7.85 3.6 8.35 4.35 8.4 4.45 9 5.6
L 9.1 5.6 9.15 5.55
Q 10.00625 7.9888671875 10.15 8.6 10.45 9.9 10.45 13 10.45 18.4 10 21.3 10.7 19.75 10.9 18.8 11.05 18.05 11.05 16.5
L 11 10.6
Q 10.860546875 8.6138671875 10.65 7.35
M 4.3 -0.45
L 4.1 -0.3
Q 5 0.35 7.15 0.95 9.15 1.5 9.95 2.15 10.7 2.7 11.9 3.7 12.9 4.5 13.8 5
L 13.85 4.95
Q 10.7 1.8 10.5 1.65 7.95 -0.25 4.3 -0.45 Z"/>

<path fill="#382616" stroke="none" d="
M 1.35 -0.85
Q 1.58984375 -0.7640625 2.75 -0.3 3.3 -0.1 3.3 0.3 3.3 0.35390625 3.3 0.4 3.7966796875 0.528125 4.15 0.8 4.75 1.25 4.75 1.85 4.75 1.8978515625 4.75 1.95 5.418359375 2.8146484375 5.95 3.55 6.555078125 4.837890625 7.1 6.2 8.75 10.25 8.75 14.2 8.75 16.294140625 8.65 17.7 8.5705078125 9.6779296875 5.5 3.55 5.6 3.7962890625 5.6 4 5.6 4.15 5.5 4.35 4.9 4 4.6 3.55 4.45 3.35 3.95 2.25
L 4.1 2.15
Q 4.65 2 5.15 2.85 4.9314453125 2.447265625 4.7 2.05 4.6712890625 2.126171875 4.6 2.15 4.3 1.85 2.3 0.35
L 2.35 0.25
Q 2.7375 0.266796875 3.05 0.35 1.4369140625 -0.411328125 1.1 -0.7 1.15 -0.8 1.35 -0.85 0.3361328125 -0.7361328125 -0.55 0.15 -1.4447265625 0.8091796875 -2.1 1.7 -2.6859375 2.0865234375 -3.25 2.55 -2.5484375 2.1783203125 -1.8 2.15 -5.45 4.5 -6.6 8.15 -7.3 10.25 -7.85 14.3
L -7.95 14.3 -8.15 12.75
Q -8.15 10.1 -6.45 6.55 -6.2828125 6.1904296875 -6.1 5.85 -6.6517578125 6.74296875 -7.1 7.75 -9.05 12.1 -9.05 18.25 -9.05 20.2 -8.55 22.2 -7.95 24.75 -7.75 26.7 -7.4 30 -4 32.7 -1.25 34.9 0.35 34.9 2.65 34.9 4.65 33.25 6.35 31.5 6.55 31.3 9.45 28.5 10.3 27.4 11.55 25.7 12.3 23.5 13.05 21.4 13.05 19.55 13.05 19.4142578125 13.05 19.25 13.75 16.4275390625 13.75 14.4 13.75 10.5 12.8 8.25 11.8044921875 5.955859375 8.9 2.85 8.5111328125 2.0337890625 8.05 1.4 8.2431640625 1.5029296875 8.35 1.6 9.65 2.85 11.6 4.4 12.85 5.4 13.85 7.2 15.1 9.35 15.6 9.95
L 15.95 8.9
Q 15.95 6.45 12 2.85 9.046875 0.15390625 6.05 -0.4 5.44375 -0.6470703125 4.75 -0.55 4.00625 -0.5515625 3.2 -0.45 2.9849609375 -0.548828125 2.7 -0.65 2.01328125 -0.898046875 1.35 -0.85
M 4.1 -0.3
L 4.3 -0.45
Q 7.95 -0.25 10.5 1.65 10.7 1.8 13.85 4.95
L 13.8 5
Q 12.9 4.5 11.9 3.7 10.7 2.7 9.95 2.15 9.15 1.5 7.15 0.95 5 0.35 4.1 -0.3
M 10.8 7.8
Q 10.73671875 7.5876953125 10.65 7.35 10.860546875 8.6138671875 11 10.6
L 11.05 16.5
Q 11.05 18.05 10.9 18.8 10.7 19.75 10 21.3 10.45 18.4 10.45 13 10.45 9.9 10.15 8.6 10.00625 7.9888671875 9.15 5.55
L 9.1 5.6 9 5.6
Q 8.4 4.45 8.35 4.35 7.85 3.6 7.25 3.2 7.4 3.1 7.7 3.05 8.1267578125 3.2796875 8.45 3.65 8.3984375 3.5318359375 8.35 3.4 9.0876953125 3.6458984375 9.6 4.4 9.5111328125 4.121875 9.4 3.85 10.665234375 5.73046875 11.4 7.2 12.8 10 12.8 12.4 12.8 14.1056640625 12.65 15.55 12.566796875 16.641796875 12.4 17.55 12.2916015625 16.8787109375 12.15 15.95
L 11.7 13.15
Q 11.8 12.8 11.75 12.6 12.2 13.2 12.6 15.25 12.6328125 15.409765625 12.65 15.55 12.144140625 12.2509765625 10.8 7.8
M 5.25 1.05
L 5.3 0.95
Q 5.8 0.75 6.6 1.35 7.35 1.95 7.35 2.3 7.35 2.55 7.2 2.45 6.7 2.25 6.15 1.75 5.5 1.2 5.25 1.05
M 5.1 4.4
Q 5.55 4.45 6.1 5.65 6.65 6.7 6.65 7.05 6.65 7.3 6.55 7.4 6.05 6.95 5.55 6 5.05 5 4.8 4.55
L 5.1 4.4
M 3.1 2.2
L 3.05 2.35
Q 3.6 5.1 4.15 8.4 5.2 15 5.2 20.75 5.2 22.95 5.15 23.4 5.1 24.4 4.6 26.8 4.409765625 27.708984375 4.05 28.6 3.168359375 28.5494140625 1.95 26.6 0.4 24.2 -0.05 23.85 -0.0671875 23.8759765625 -0.1 23.9 -0.7287109375 22.3755859375 -1.25 20.6
L -1.3 20.55 -1.2 19.95
Q -2 16.7 -2 14.85 -2 13.35 -1.45 7.85 -1.3595703125 6.9220703125 -1.15 6.1 -1.3 7.2263671875 -1.3 8.5 0.15 20.6 1.5 20.6 2.1 20.6 1.95 19.8 1.35 17.55 0.7 15.25 -0.55 10.7 -0.55 8.3 -0.55 6.10390625 0 3.5 0.72890625 2.4802734375 1.8 1.55 3.0298828125 1.6572265625 4.1 3.25 5.2677734375 5.568359375 6.05 8.05 6.103125 7.98671875 6.25 7.95 6.8 8.3 6.95 9.05 7.05 9.5 7.2 10.3 6.7 10.05 6.55 9.3 6.3689453125 8.485546875 6.05 8.2 7.45 12.8462890625 7.45 18.15 7.45 21 6.65 24.25 6.25390625 25.758984375 5.75 26.85 6.35 21.0478515625 6.35 20.9 6.35 16.9 5.5 10.55 4.45 2.75 3.1 2.2
M 8.65 7.3
Q 8.9564453125 7.8296875 9.1 8.15 9.9 9.85 9.9 13.95 9.9 14.88203125 9.85 15.8
L 9.85 13.35
Q 9.5720703125 9.9689453125 8.65 7.3
M 9.2 21.2
Q 9.126953125 21.5740234375 9.05 21.95 7.95 27.35 6 29.05 6.5763671875 28.0931640625 7 27 8.1494140625 25.07734375 9.2 21.2
M 11.65 18.8
Q 11.65 19.6134765625 11.55 20.45 10.901953125 22.208984375 9.55 25.8 9.4607421875 25.9939453125 9.35 26.15 10.35 23.95 10.8 20.95 11.2 17.35 11.4 15.55 11.65 17.4 11.65 18.8
M 0.85 27.15
Q 1.0083984375 27.36875 1.15 27.55 2.08203125 28.5396484375 3.15 29.15 3.1109375 29.106640625 3.05 29.05 3.3751953125 29.268359375 3.65 29.45 3.6513671875 29.5001953125 3.6 29.55
L 3 29.55
Q 2.712109375 29.55 2.4 29.5 2.2994140625 29.4001953125 2.15 29.25 1.5025390625 28.09921875 0.85 27.15
M 4.05 31.7
Q 4.2150390625 31.50234375 4.35 31.2 4.6630859375 31.1173828125 4.75 31.1 4.37890625 31.4419921875 4.05 31.7
M 3.65 32.3
Q 3.5 32.85 2.55 33.25 1.55 33.7 0.1 33.7 -1.05 33.7 -1.3 33.35 -1.2068359375 33.33671875 -1.1 33.3
L -1.15 33.3
Q -1.25 33.05 -1.55 32.75 0.5265625 32.6669921875 2 32.15 1.8015625 32.46171875 1.6 32.7 1.6 32.95 1.65 32.9 1.7 32.9 1.85 33 2.7908203125 33 3.55 32.3 3.6130859375 32.292578125 3.65 32.3
M 1.7 31
L 0 31.5 -0.2 31.5 -0.2 31.55
Q -0.6 31.8 -1.6 31.8 -4.85 31.8 -6.35 29.15 -7.15 26.45 -7.2 26.4
L -7.1 26.2
Q -6.6876953125 26.4748046875 -6.35 26.95 -6.712890625 25.93515625 -6.95 24.75 -7.5 20.7 -7.85 18.75 -7.4 20.15 -6.3 24.6 -5.43671875 27.916796875 -4.7 30 -3.9646484375 30.55546875 -2.8 30.85 -3.1490234375 29.9427734375 -4 27.75 -2.1 30.1 1.7 31
M -1.3 3.45
Q -1.045703125 3.155859375 -0.85 2.95 -0.5228515625 2.6111328125 -0.2 2.35 -1.3763671875 3.805859375 -2.1 6.75 -2.402734375 8.03203125 -2.6 9.4 -2.5244140625 7.996875 -2.35 6.95 -2.0220703125 5.0556640625 -1.3 3.45
M -4.85 9.3
Q -5.0328125 10.0708984375 -5.2 11.15 -5.55 13.6 -5.55 15.85 -5.55 19.45 -3.75 23.9 -2.446484375 27.0935546875 -1.05 28.2 -1.7193359375 27.899609375 -2.35 27.65 -4.3083984375 25.9037109375 -5.25 22.5 -6.2 18.95 -5.9 15.25 -5.9 11.9185546875 -4.85 9.3
M -4.6 15.65
Q -4.6 14.4412109375 -4.5 12.95 -4.32734375 14.3857421875 -4.05 16.15 -3.664453125 18.6119140625 -3.25 19.85 -2.844921875 21.3830078125 -2.5 22.65 -2.4869140625 22.6736328125 -2.5 22.7 -2.456640625 22.7798828125 -2.45 22.85 -1.948828125 24.427734375 -1.5 25.55 -2.7345703125 23.6857421875 -3.4 22.05 -4.6 19.15 -4.6 15.65
M -5.15 29.65
Q -5.4 29.219921875 -5.65 28.75 -5.5896484375 28.92578125 -5.55 29.1 -5.3896484375 29.3966796875 -5.15 29.65 Z"/>
</g>

<g id="grafika_characters_wiewior_squirrel_body_0_Layer0_0_FILL">
<path fill="#3A2210" stroke="none" d="
M 2.15 1.75
Q 1.4 2.6 2.15 4.5 2.7 5.55 4.25 8.6 7.35 14.95 4.55 20.3 -0.3 29.5 0 34.7 0.2 41.2 7.7 46.05 11.4 48.4 14.15 48.35 17.7 48.25 21 44.25 26.6 37.85 24.7 25.6 22.6 12.05 12 2.95 5.75 -2.3 2.15 1.75
M 5.55 1.3
Q 6.2 1.15 6.9 1.25 7.4 1.3 7.95 1.45 9.45 2 10.4 2.75 19.5 9.85 22.4 22.7 25.45 36.15 18.65 44.8 18.15 45.55 17.15 46.4 16.15 47.15 15.5 47.4 14.15 47.8 12.45 47.35 12.15 47.25 11.8 47.15 11.55 47.05 11.3 46.95 9.6 46.35 7.85 45.25 7.75 45.2 7.7 45.15 7.2 44.85 6.7 44.45 6.15 44 5.55 43.55 1.05 39.8 1 34.8 1 32.35 2 29.7 6.8 20.75 6.85 16.85 6.9 11 4.65 6.5 4.25 5.75 3.9 5.2 3.45 4.2 3.2 3.65 3.2 3.45 3.15 3.4 2.9 2.85 2.95 2.7
L 3 2.65
Q 3.1 2.5 3.2 2.45 4.05 1.6 5.55 1.3 Z"/>

<path fill="#E16905" stroke="none" d="
M 10.4 2.75
Q 9.45 2 7.95 1.45 17.85 8.35 20.65 22.6 23.75 37.5 15.5 47.4 16.15 47.15 17.15 46.4 18.15 45.55 18.65 44.8 25.45 36.15 22.4 22.7 19.5 9.85 10.4 2.75 Z"/>

<path fill="#E08C4F" stroke="none" d="
M 3.9 5.2
Q 4.25 5.75 4.65 6.5 6.9 11 6.85 16.85 6.8 20.75 2 29.7 1 32.35 1 34.8 1.05 39.8 5.55 43.55 6.15 44 6.7 44.45 7.2 44.85 7.7 45.15 8.5 43.85 9.05 42.3 11.75 35.55 11.45 28.35 11.15 21.15 8.8 14.45 6.95 9.35 3.9 5.2 Z"/>

<path fill="#C25814" stroke="none" d="
M 6.9 1.25
Q 6.2 1.15 5.55 1.3 4.05 1.6 3.2 2.45 3.1 2.5 3 2.65
L 2.95 2.7
Q 2.9 2.85 3.15 3.4 3.2 3.45 3.2 3.65 3.45 4.2 3.9 5.2 6.95 9.35 8.8 14.45 11.15 21.15 11.45 28.35 11.75 35.55 9.05 42.3 8.5 43.85 7.7 45.15 7.75 45.2 7.85 45.25 9.6 46.35 11.3 46.95 11.55 47.05 11.8 47.15 12.15 47.25 12.45 47.35 14.15 47.8 15.5 47.4 23.75 37.5 20.65 22.6 17.85 8.35 7.95 1.45 7.4 1.3 6.9 1.25 Z"/>
</g>

<g id="shadow_0_Layer0_0_FILL">
<path fill="#000000" stroke="none" d="
M 34.4 -4.05
Q 20.15 -6.55 0 -7.1 -20.15 -7.7 -34.4 -6.05 -48.65 -4.4 -48.65 -1.45 -48.65 1.45 -34.4 3.95 -20.15 6.45 0 7.05 20.15 7.6 34.4 5.95 48.65 4.3 48.65 1.4 48.65 -1.55 34.4 -4.05 Z"/>
</g>

<g id="grafika_characters_wiewior_squirrel_earR_0_Layer0_0_FILL">
<path fill="#3A2210" stroke="none" d="
M 6.5 5.7
L 6.4 0.3
Q 5.85 0.2 4.9 0.15 2.35 0.1 1 2.85 0 4.75 0 7 0 9.7 1.05 12.2 2.1 14.75 3.95 16.35 4.8 15.65 5.65 11.6 6.45 7.75 6.5 5.7
M 5.35 5.8
Q 5.4 5.95 5.35 6.05 5.3 8.75 4.65 11.5 4.25 13.1 3.6 14.85 1.65 11.8 1.2 10.2 1.05 9.35 1.05 8.15 1 7.5 1 6.8 0.95 5 1.3 4.45
L 1.4 4.45
Q 1.7 3.8 4.25 1.2 5.55 1.65 5.35 5.8 Z"/>

<path fill="#C24B00" stroke="none" d="
M 4.65 11.5
Q 3.25 9.55 1.05 8.15 1.05 9.35 1.2 10.2 1.65 11.8 3.6 14.85 4.25 13.1 4.65 11.5 Z"/>

<path fill="#E16905" stroke="none" d="
M 1.4 4.45
Q 2.6 3.35 4.05 2.55 4.15 2.55 4.3 2.65
L 5.35 5.8
Q 5.55 1.65 4.25 1.2 1.7 3.8 1.4 4.45 Z"/>

<path fill="#C25814" stroke="none" d="
M 5.35 6.05
Q 5.4 5.95 5.35 5.8
L 4.3 2.65
Q 4.15 2.55 4.05 2.55 2.6 3.35 1.4 4.45
L 1.3 4.45
Q 0.95 5 1 6.8 1 7.5 1.05 8.15 3.25 9.55 4.65 11.5 5.3 8.75 5.35 6.05 Z"/>
</g>

<g id="grafika_characters_wiewior_squirrel_earL_0_Layer0_0_FILL">
<path fill="#3A2210" stroke="none" d="
M 16.15 7.05
Q 16.2 2.35 13.3 0.8 11.85 0.05 9.95 0 9.65 4.85 9.55 6 9.55 6.45 10.45 11.05 11.35 16.05 11.8 17.25 12.8 16 14.65 13.7 16.1 11.35 16.15 7.05
M 10.9 2.65
Q 11 2.4 11.1 2.3 11.05 2.2 11.1 2.2 11.3 1.7 11.7 1.55 11.7 1.5 11.8 1.5 12 1.65 12.2 1.85 13.35 3.1 14.05 3.9 14.65 4.6 14.7 4.8 15.05 5.3 15 7.15 15 8.05 14.95 8.75 14.85 9.4 14.8 9.95 14.75 10.25 14.7 10.5 14.45 11.3 13.95 12.35
L 13.85 12.45 13.85 12.5
Q 13.75 12.6 13.7 12.85 13.55 12.95 13.5 13.1 13.4 13.2 13.4 13.25 12.9 14.05 12.2 15.1 10.7 10.6 10.6 6.35 10.6 6.25 10.55 6.2 10.6 3.75 10.9 2.65 Z"/>

<path fill="#D45300" stroke="none" d="
M 10.55 6.2
Q 10.6 6.25 10.6 6.35 10.7 10.6 12.2 15.1 12.9 14.05 13.4 13.25 12.95 12.05 12.65 10.85 12.6015625 10.8015625 12.6 10.7
L 12.55 10.65
Q 12.55 10.6 12.55 10.55 11.2 7.05 10.9 2.65 10.6 3.75 10.55 6.2 Z"/>

<path fill="#C25814" stroke="none" d="
M 12.05 3.95
Q 12.05 5 12.15 6.1 12.15 7 12.2 7.9 12.2 8.05 12.25 8.1 12.25 8.3 12.3 8.55 12.25 8.95 12.45 9.3 12.6 10.1 12.75 10.85 12.6046875 10.8015625 12.6 10.7 12.6015625 10.8015625 12.65 10.85 12.95 12.05 13.4 13.25 13.4 13.2 13.5 13.1 13.55 12.95 13.7 12.85 13.75 12.6 13.85 12.5
L 13.85 12.45 13.95 12.35
Q 14.45 11.3 14.7 10.5 14.75 10.25 14.8 9.95 14.85 9.4 14.95 8.75 15 8.05 15 7.15 14.2 5.85 13.3 4.7 12.65 3.95 12.1 3.3 12.15 3.55 12.05 3.95 Z"/>

<path fill="#E16905" stroke="none" d="
M 11.1 2.3
Q 11 2.4 10.9 2.65 11.2 7.05 12.55 10.55 12.55 10.6 12.55 10.65
L 12.6 10.7
Q 12.6046875 10.8015625 12.75 10.85 12.6 10.1 12.45 9.3 12.25 8.95 12.3 8.55 12.25 8.3 12.25 8.1 12.2 8.05 12.2 7.9 12.15 7 12.15 6.1 12.05 5 12.05 3.95 12.15 3.55 12.1 3.3 12.65 3.95 13.3 4.7 14.2 5.85 15 7.15 15.05 5.3 14.7 4.8 14.65 4.6 14.05 3.9 13.35 3.1 12.2 1.85 12 1.65 11.8 1.5 11.7 1.5 11.7 1.55 11.3 1.7 11.1 2.2 11.05 2.2 11.1 2.3 Z"/>
</g>

<g id="grafika_characters_wiewior_squirrel_head_0_Layer1_1_FILL">
<path fill="#3A2210" stroke="none" d="
M 33.7 22.6
Q 35.15 18.3 33.7 15.85 32.35 13.55 27.8 11.95 19.9 9.25 12.55 12.4 6.15 15.15 2.15 21.15 -1.2 26.25 0.65 30.15 2.7 34.5 10.6 35.5 18.95 36.5 25.3 32.8 31.55 29.2 33.7 22.6
M 31.9 15
Q 32.9 15.8 33.25 17.25 33.4 17.6 33.4 18.1 33.4 18.2 33.4 18.3 33.45 18.45 33.5 18.65 33.5 20.1 33.1 21.6 33.1 21.7 33.05 21.85 32.6 23.3 32 24.6 31.9 24.9 31.75 25.15 31.4 25.8 31 26.45 30.45 27.2 30 27.85 29.35 28.6 28.65 29.25 28.55 29.35 28.45 29.45 28.2 29.7 27.85 30 27.7 30.1 27.65 30.15 27.1 30.7 26.5 31.05 26 31.4 25.45 31.75 24.35 32.45 23.15 33 22.85 33.05 22.65 33.15 19.1 34.6 14.8 34.65 14.05 34.65 13.4 34.65 13.15 34.6 12.95 34.6 12.7 34.6 12.5 34.6 11.95 34.5 11.35 34.45
L 10.9 34.35
Q 10.1 34.2 9.25 34.05 7.2 33.45 5.4 32.4 4.2 31.7 3.35 30.85 3.2 30.7 3.05 30.6 2.55 29.95 2.25 29.3 1.85 28.6 1.7 27.9 1.3 26.25 1.8 24.3 1.9 23.95 2 23.5 2.05 23.3 2.15 23.2
L 2.15 23.15
Q 2.3 22.8 2.45 22.5 2.6 22.3 2.7 22.15
L 3.15 21.4 3.2 21.3 3.65 20.7
Q 4.25 19.95 4.85 19.25 9.85 13.5 17.15 12.05 25.35 10.45 31.9 15 Z"/>

<path fill="#D45300" stroke="none" d="
M 11.2 28.3
Q 11.25 28.7 11.3 29.25 11.3 29.3 11.3 29.45 11.3 30 11.3 30.55 11.3 31.45 11.15 32.65 11.05 33.4 10.9 34.35
L 11.35 34.45
Q 11.95 34.5 12.5 34.6 12.7 34.6 12.95 34.6 13.15 34.6 13.4 34.65 14.05 34.65 14.8 34.65 19.1 34.6 22.65 33.15 22.85 33.05 23.15 33 24.35 32.45 25.45 31.75 26 31.4 26.5 31.05 27.1 30.7 27.65 30.15 21.45 31.1 15.1 29.5 13 29 11.2 28.3 Z"/>

<path fill="#E16905" stroke="none" d="
M 4.85 19.25
Q 4.25 19.95 3.65 20.7 4.5 20.15 5.3 19.65 12.05 15.45 17.15 14.1 24.5 12.2 31.9 15 25.35 10.45 17.15 12.05 9.85 13.5 4.85 19.25 Z"/>

<path fill="#E08C4F" stroke="none" d="
M 3.7 21.5
Q 3.45 21.4 3.15 21.4
L 2.7 22.15
Q 2.6 22.3 2.45 22.5 2.3 22.8 2.15 23.15
L 2.15 23.2
Q 2.05 23.3 2 23.5 1.9 23.95 1.8 24.3 1.3 26.25 1.7 27.9 1.85 28.6 2.25 29.3 2.55 29.95 3.05 30.6 3.2 30.7 3.35 30.85 4.2 31.7 5.4 32.4 7.2 33.45 9.25 34.05 10.1 34.2 10.9 34.35 11.05 33.4 11.15 32.65 11.3 31.45 11.3 30.55 11.3 30 11.3 29.45 11.3 29.3 11.3 29.25 11.25 28.7 11.2 28.3 11 27.75 10.9 27.3 10.85 27.1 10.75 26.95 10.55 26.35 10.2 25.85 10.1 25.65 10 25.45 9.45 24.55 8.6 23.8 8.2 23.4 7.7 23.1 5.95 21.95 3.7 21.5 Z"/>

<path fill="#C25814" stroke="none" d="
M 33.25 17.25
Q 32.9 15.8 31.9 15 24.5 12.2 17.15 14.1 12.05 15.45 5.3 19.65 4.5 20.15 3.65 20.7
L 3.2 21.3 3.15 21.4
Q 3.45 21.4 3.7 21.5 5.95 21.95 7.7 23.1 8.2 23.4 8.6 23.8 9.45 24.55 10 25.45 10.1 25.65 10.2 25.85 10.55 26.35 10.75 26.95 10.85 27.1 10.9 27.3 11 27.75 11.2 28.3 13 29 15.1 29.5 21.45 31.1 27.65 30.15 27.7 30.1 27.85 30 28.2 29.7 28.45 29.45 28.55 29.35 28.65 29.25 29.35 28.6 30 27.85 30.45 27.2 31 26.45 31.4 25.8 31.75 25.15 31.9 24.9 32 24.6 32.6 23.3 33.05 21.85 33.1 21.7 33.1 21.6 33.5 20.1 33.5 18.65 33.45 18.45 33.4 18.3 33.4 18.2 33.4 18.1 33.4 17.6 33.25 17.25 Z"/>
</g>

<g id="grafika_characters_wiewior_squirrel_eye_0_Layer3_0_FILL">
<path fill="#3A2210" stroke="none" d="
M 8.45 4.3
Q 8.45 2.55 7.25 1.25 6 0 4.25 0 2.5 0 1.25 1.25 0 2.55 0 4.3 0 6.05 1.25 7.3 2.5 8.6 4.25 8.6 6 8.6 7.25 7.3 8.45 6.05 8.45 4.3
M 4.85 1.55
L 4.8 1.5
Q 7.75 1.95 7.6 4.4 7.7 5.55 6.7 6.65 5.7 7.8 4.65 7.7 1.55 7.8 1.55 4.25 1.55 2.65 2.5 2.05 3.2 1.25 4.85 1.55 Z"/>

<path fill="#FFFFFF" stroke="none" d="
M 4.8 1.5
L 4.85 1.55
Q 3.2 1.25 2.5 2.05 1.55 2.65 1.55 4.25 1.55 7.8 4.65 7.7 5.7 7.8 6.7 6.65 7.7 5.55 7.6 4.4 7.75 1.95 4.8 1.5
M 2.95 3.75
Q 3.35 3.45 3.85 3.45 4.35 3.45 4.6 4.4 4.6 4.8 4.35 5.2 4.05 5.7 3.5 5.7 2.95 5.7 2.7 5.15 2.55 4.8 2.55 4.5 2.55 4.05 2.95 3.75 Z"/>

<path fill="#000000" stroke="none" d="
M 3.85 3.45
Q 3.35 3.45 2.95 3.75 2.55 4.05 2.55 4.5 2.55 4.8 2.7 5.15 2.95 5.7 3.5 5.7 4.05 5.7 4.35 5.2 4.6 4.8 4.6 4.4 4.35 3.45 3.85 3.45 Z"/>
</g>

<g id="grafika_characters_wiewior_squirrel_eye_0_Layer2_0_FILL">
<path fill="#3A2210" stroke="none" d="
M 1.3 3.55
Q 1.3 2.15 0.35 1.1 -0.65 0.1 -2.05 0.1 -3.45 0.1 -4.45 1.1 -5.45 2.15 -5.45 3.55 -5.45 4.95 -4.45 5.95 -3.45 7 -2.05 7 -0.65 7 0.35 5.95 1.3 4.95 1.3 3.55
M -1.55 1.35
L -1.6 1.3
Q 0.75 1.65 0.65 3.6 0.7 4.55 -0.1 5.4 -0.9 6.35 -1.7 6.25 -4.2 6.35 -4.2 3.5 -4.2 2.2 -3.45 1.75 -2.9 1.1 -1.55 1.35 Z"/>

<path fill="#FFFFFF" stroke="none" d="
M -1.6 1.3
L -1.55 1.35
Q -2.9 1.1 -3.45 1.75 -4.2 2.2 -4.2 3.5 -4.2 6.35 -1.7 6.25 -0.9 6.35 -0.1 5.4 0.7 4.55 0.65 3.6 0.75 1.65 -1.6 1.3
M -3.3 4.2
Q -3.4 3.95 -3.4 3.7 -3.4 3.35 -3.1 3.1 -2.75 2.85 -2.35 2.85 -1.95 2.85 -1.75 3.6 -1.75 3.95 -1.95 4.25 -2.2 4.65 -2.65 4.65 -3.1 4.65 -3.3 4.2 Z"/>

<path fill="#000000" stroke="none" d="
M -3.4 3.7
Q -3.4 3.95 -3.3 4.2 -3.1 4.65 -2.65 4.65 -2.2 4.65 -1.95 4.25 -1.75 3.95 -1.75 3.6 -1.95 2.85 -2.35 2.85 -2.75 2.85 -3.1 3.1 -3.4 3.35 -3.4 3.7 Z"/>
</g>

<g id="grafika_characters_wiewior_squirrel_head_0_Layer1_3_FILL">
<path fill="#3A2210" stroke="none" d="
M 6.3 23.55
Q 5.05 23.2 3.95 23.65 2.9 24.05 2.65 25 2.4 25.95 3.1 26.85 3.8 27.75 5.05 28.1 6.35 28.45 7.4 28.05 8.5 27.6 8.75 26.65 9 25.75 8.3 24.85 7.6 23.95 6.3 23.55
M 4.85 24.45
Q 4.95 24 5.55 24.1 5.85 24.1 6.2 24.25 6.95 24.45 6.85 25 6.7 25.45 5.4 25.05 4.7 24.85 4.85 24.45 Z"/>

<path fill="#988C84" stroke="none" d="
M 5.55 24.1
Q 4.95 24 4.85 24.45 4.7 24.85 5.4 25.05 6.7 25.45 6.85 25 6.95 24.45 6.2 24.25 5.85 24.1 5.55 24.1 Z"/>
</g>

<g id="grafika_characters_wiewior_mouth_0_Layer2_0_FILL">
<path fill="#3A2210" stroke="none" d="
M 4 2.85
Q 3.75 3.1 1.95 3.25 0.25 3.35 0 3.8 -0.2 4.3 1.3 4.55 3 4.65 4.75 3.9 6.6 3 6.95 1.55 7.2 0.25 6.6 0.05 5.55 -0.2 4.95 0.95 4.15 2.75 4 2.85 Z"/>
</g>

<g id="grafika_characters_wiewior_squirrel_handBlue_0_Layer0_0_FILL">
<path fill="#3A2210" stroke="none" d="
M 2.35 0.6
Q 1.300390625 1.7005859375 0.95 2.8 0.8400390625 3.2541015625 1.15 3.95 1.3154296875 3.9962890625 1.5 4.1 1.85 4.35 1.85 4.7 1.85 4.8818359375 1.8 5 2.034765625 5.348828125 2.3 5.7 2.4998046875 5.7181640625 2.65 5.8 3.086328125 6.0423828125 3.1 6.45
L 3.55 6.75
Q 4.47265625 7.2208984375 5.65 6.6 7.5638671875 2.2078125 6.4 0.55 5.68671875 -0.46875 3.3 -0.6 3.0974609375 -0.1830078125 2.35 0.6 Z"/>
</g>

<g id="grafika_characters_wiewior_squirrel_handBlue_0_Layer0_1_FILL">
<path fill="#5D3B21" stroke="none" d="
M 6.25 3.5
Q 6.103125 3.2361328125 5.5 3.15 4.98828125 3.059765625 4.3 3.2 4.546875 3.0974609375 4.75 2.95 3.69765625 3.1322265625 2.9 3.85 2.85 3.85 2.85 3.9 4.5015625 3.9734375 6.25 3.5
M 7.45 4.6
Q 7.281640625 4.5044921875 6.9 4.45 6.612890625 4.3994140625 6.25 4.4 6.0125 4.598828125 5.8 4.85 5.75 4.85 5.7 4.85 6.5869140625 4.943359375 7.45 4.6
M 5.75 0.85
Q 5.698046875 0.837890625 5.6 0.8 5.433203125 0.8 5.2 0.8
L 5.15 0.8
Q 4.2708984375 0.8125 3.25 1.25
L 3.2 1.25
Q 2.9595703125 1.3677734375 2.7 1.5 2.6873046875 1.5197265625 2.65 1.55 2.2859375 1.7353515625 2 1.95 1.896875 2.0263671875 1.8 2.1 1.6486328125 2.2919921875 1.5 2.5
L 1.9 2.15 1.9 2.2
Q 1.9 2.25 1.9 2.3 4.166015625 2.5361328125 5.75 0.85
M 4.65 -2.25
Q 4.4453125 -2.0111328125 4.25 -1.9 4.349609375 -1.6005859375 4.55 -1.35 5.05 -1.2 5.35 -1.55 5.472265625 -1.7853515625 5.55 -2 5.44296875 -2.2291015625 5.3 -2.45 4.95 -2.55 4.65 -2.25 Z"/>

<path fill="#3A2210" stroke="none" d="
M 5.8 2.25
Q 6.4 1.65 6.25 1.2 6.126953125 0.95390625 5.75 0.85 4.166015625 2.5361328125 1.9 2.3 1.9 2.25 1.9 2.2
L 1.9 2.15 1.5 2.5
Q 1.6486328125 2.2919921875 1.8 2.1 1.7775390625 2.1259765625 1.75 2.15 1.67421875 2.22578125 1.6 2.3 0.95 2.9 1.15 3.3 1.3 3.75 2.2 3.75 2.635546875 3.75 3.1 3.6 2.27734375 4.133984375 2.1 4.4 1.8 4.6 1.95 4.95 2.05 5.3 2.1 5.35 2.3 5.4 3.45 5.45
L 3.95 5.3
Q 3.60703125 5.539453125 3.5 5.7 3.2 5.9 3.35 6.25 3.45 6.6 3.5 6.65 3.7 6.7 4.85 6.75
L 6.95 6.1
Q 7.95 5.7 7.7 4.9 7.6544921875 4.7408203125 7.45 4.6 6.5869140625 4.943359375 5.7 4.85 5.75 4.85 5.8 4.85 6.0125 4.598828125 6.25 4.4 6.1986328125 4.41875 6.1 4.4 6.4544921875 4.094140625 6.3 3.6 6.2861328125 3.5515625 6.25 3.5 4.5015625 3.9734375 2.85 3.9 2.85 3.85 2.9 3.85 3.69765625 3.1322265625 4.75 2.95 5.3623046875 2.6541015625 5.8 2.25
M 4.15 -1.8
Q 4 -1.65 4 -0.95 4 -0.1302734375 4.5 0.1 4.785546875 0.25 5.15 0.25 5.377734375 0.25 5.5 0.15 5.85 -0.0751953125 5.85 -0.75 5.85 -1.3791015625 5.55 -2 5.472265625 -1.7853515625 5.35 -1.55 5.05 -1.2 4.55 -1.35 4.349609375 -1.6005859375 4.25 -1.9 4.2134765625 -1.8318359375 4.15 -1.8 Z"/>
</g>
</defs>

<g enable-background="new">
<g transform="matrix( 1, 0, 0, 1, 0.05,0.4) ">
<g id="squirrel" transform="matrix( 1.5177459716796875, -0.06610107421875, 0.066070556640625, 1.51751708984375, 13.15,7.55) ">
<g transform="matrix( -1, 0, 0, 1, 43.35,77.4) ">
<g transform="matrix( 1, 0, 0, 1, 0,0) ">
<use xlink:href="#grafika_characters_wiewior_squirrel_tail_0_Layer0_0_FILL"/>
</g>
</g>

<g transform="matrix( 0.94915771484375, -0.0791168212890625, 0.5003204345703125, 0.77862548828125, 54.05,67.45) ">
<g transform="matrix( 1, 0, 0, 1, 0,0) ">
<use xlink:href="#grafika_characters_wiewior_squirrel_calf_0_Layer0_0_FILL"/>
</g>

<g transform="matrix( 1, 0, 0, 1, 0,0) ">
<use xlink:href="#grafika_characters_wiewior_squirrel_calf_0_Layer0_1_FILL"/>
</g>
</g>

<g transform="matrix( -0.7499542236328125, 0.661468505859375, 0.661468505859375, 0.7499542236328125, 64.7,58.75) ">
<g transform="matrix( 1, 0, 0, 1, 0,0) ">
<use xlink:href="#grafika_characters_wiewior_squirrel_leg_0_Layer0_0_FILL"/>
</g>

<g transform="matrix( 1, 0, 0, 1, 0,0) ">
<use xlink:href="#grafika_characters_wiewior_squirrel_leg_0_Layer0_0_MEMBER_0_FILL"/>
</g>
</g>

<g transform="matrix( -0.6160430908203125, 0.7877044677734375, 0.7877044677734375, 0.6160430908203125, 60,32.35) ">
<g transform="matrix( 1, 0, 0, 1, 0,0) ">
<use xlink:href="#grafika_characters_wiewior_squirrel_foreArm_0_Layer0_0_FILL"/>
</g>
</g>

<g id="red" transform="matrix( -1, 0, 0, 1, 88.55,53.25) ">
<g transform="matrix( 1, 0, 0, 1, 0,0) ">
<use xlink:href="#grafika_characters_wiewior_squirrel_handRed_0_Layer1_0_FILL"/>
</g>

<g transform="matrix( 1, 0, 0, 1, 0,0) ">
<use xlink:href="#grafika_characters_wiewior_squirrel_handRed_0_Layer1_1_FILL"/>
</g>

<g transform="matrix( 1, 0, 0, 1, 0,0) ">
<use xlink:href="#grafika_characters_wiewior_squirrel_handRed_0_Layer0_0_FILL"/>
</g>
</g>

<g transform="matrix( -1, 0, 0, 1, 64.75,29.95) ">
<g transform="matrix( 1, 0, 0, 1, 0,0) ">
<use xlink:href="#grafika_characters_wiewior_squirrel_body_0_Layer0_0_FILL"/>
</g>
</g>

<g transform="matrix( -1, 0, 0, 1, 48.05,66.1) ">
<g transform="matrix( 1, 0, 0, 1, 0,0) ">
<use xlink:href="#grafika_characters_wiewior_squirrel_calf_0_Layer0_0_FILL"/>
</g>

<g transform="matrix( 1, 0, 0, 1, 0,0) ">
<use xlink:href="#grafika_characters_wiewior_squirrel_calf_0_Layer0_1_FILL"/>
</g>
</g>

<g transform="matrix( -0.95782470703125, 0.2873382568359375, 0.2873382568359375, 0.95782470703125, 48.5,61.05) ">
<g transform="matrix( 1, 0, 0, 1, 0,0) ">
<use xlink:href="#grafika_characters_wiewior_squirrel_leg_0_Layer0_0_FILL"/>
</g>

<g transform="matrix( 1, 0, 0, 1, 0,0) ">
<use xlink:href="#grafika_characters_wiewior_squirrel_leg_0_Layer0_0_MEMBER_0_FILL"/>
</g>
</g>

<g filter="url(#Filter_1)" transform="matrix( 0.657623291015625, 0.0286407470703125, -0.02862548828125, 0.65771484375, -8.45,-5.65) ">
<g transform="matrix( 1.369964599609375, 0.0175323486328125, -3.193267822265625, 1.7351837158203125, 96.15,144.6) ">
<g transform="matrix( 1, 0, 0, 1, 0,0) ">
<use xlink:href="#shadow_0_Layer0_0_FILL"/>
</g>
</g>
</g>

<g id="s_head" transform="matrix( -1, 0, 0, 1, 84.6,4) ">
<g transform="matrix( 0.9723968505859375, 0.2333221435546875, -0.2333221435546875, 0.9723968505859375, 25.8,0) ">
<g transform="matrix( 1, 0, 0, 1, 3.25,8.25) ">
<g transform="matrix( 1, 0, 0, 1, -3.25,-8.25) ">
<use xlink:href="#grafika_characters_wiewior_squirrel_earR_0_Layer0_0_FILL"/>
</g>
</g>

<g transform="matrix( 1, 0, 0, 1, 12.85,8.6) ">
<g transform="matrix( 1, 0, 0, 1, -12.85,-8.6) ">
<use xlink:href="#grafika_characters_wiewior_squirrel_earL_0_Layer0_0_FILL"/>
</g>
</g>
</g>

<g transform="matrix( 1, 0, 0, 1, 0,0) ">
<use xlink:href="#grafika_characters_wiewior_squirrel_head_0_Layer1_1_FILL"/>
</g>

<g id="eyes" transform="matrix( 1, 0, 0, 1, 20,12) ">
<g transform="matrix( 1, 0, 0, 1, 0,0) ">
<use xlink:href="#grafika_characters_wiewior_squirrel_eye_0_Layer3_0_FILL"/>
</g>

<g transform="matrix( 1, 0, 0, 1, 0,0) ">
<use xlink:href="#grafika_characters_wiewior_squirrel_eye_0_Layer2_0_FILL"/>
</g>
</g>

<g transform="matrix( 1, 0, 0, 1, 0,0) ">
<use xlink:href="#grafika_characters_wiewior_squirrel_head_0_Layer1_3_FILL"/>
</g>

<g id="mouth" transform="matrix( 1, 0, 0, 1, 23.2,21.65) ">
<g transform="matrix( 1, 0, 0, 1, 0,0) ">
<use xlink:href="#grafika_characters_wiewior_mouth_0_Layer2_0_FILL"/>
</g>
</g>
</g>

<g transform="matrix( 1.162994384765625, 0.23101806640625, -0.12030029296875, 0.6056060791015625, 48.55,37.1) ">
<g transform="matrix( 1, 0, 0, 1, 0,0) ">
<use xlink:href="#grafika_characters_wiewior_squirrel_foreArm_0_Layer0_0_FILL"/>
</g>
</g>

<g id="blue" transform="matrix( 1, 0, 0, 1, 43.4,54.35) ">
<g transform="matrix( 1, 0, 0, 1, 0,0) ">
<use xlink:href="#grafika_characters_wiewior_squirrel_handBlue_0_Layer0_0_FILL"/>
</g>

<g transform="matrix( 1, 0, 0, 1, 0,0) ">
<use xlink:href="#grafika_characters_wiewior_squirrel_handBlue_0_Layer0_1_FILL"/>
</g>
</g>
</g>
</g>
</g>
</svg>
