
<svg xmlns="http://www.w3.org/2000/svg" version="1.1" xmlns:xlink="http://www.w3.org/1999/xlink" preserveAspectRatio="none" x="0px" y="0px" width="53px" height="94px" viewBox="0 0 53 94">
<defs>
<g id="Layer0_0_MEMBER_0_FILL">
<path fill="#FF3769" stroke="none" d="
M 250 154.45
Q 248.9787109375 155.4591796875 248.95 156.9 248.841015625 161.0068359375 251.35 165.1 256.041796875 173.05390625 268.05 173.05 271.81484375 173.046484375 272.9 175.6 273.29765625 176.8158203125 273.3 178.65 273.298828125 178.7115234375 273.3 178.75 273.3091796875 179.0392578125 273.3 179.3 270.6734375 179.680078125 268.25 180.55
L 268.25 180.55
Q 263.52734375 182.23125 259.55 186.15
L 259.5 186.2
Q 255.7736328125 189.973828125 253.95 194.6 253.965234375 194.6642578125 253.95 194.7 252.503125 198.7103515625 252.5 203.3
L 252.5 222.75
Q 252.5 223 252.5 223.2 252.49921875 223.2462890625 252.5 223.3 252.6220703125 227.364453125 253.95 230.9
L 253.95 230.9
Q 255.7640625 235.55859375 259.45 239.35 259.5189453125 239.411328125 259.55 239.45 266.7208984375 246.5041015625 276.75 246.5 286.796875 246.4943359375 293.9 239.4 300.6462890625 232.7037109375 301.05 223.35 301.0515625 223.2748046875 301.05 223.2 301.05 223 301.05 222.75
L 301.05 203.3
Q 301.0544921875 193.2462890625 293.9 186.15
L 293.9 186.15
Q 289.9310546875 182.23125 285.25 180.55
L 285.25 180.55
Q 282.8779296875 179.6990234375 280.3 179.35 280.31171875 178.980078125 280.3 178.65 280.3 178.5873046875 280.3 178.5 280.287890625 175.4427734375 279.55 173.4 277.39453125 166.0533203125 268.05 166.05 260.4548828125 166.04609375 257.3 161.4 255.9587890625 159.1931640625 255.95 157 255.9654296875 155.5611328125 254.95 154.5 253.94140625 153.4775390625 252.5 153.45 251.0619140625 153.433203125 250 154.45
M 260.5 197.15
Q 260.5365234375 197.137109375 260.55 197.1 261.843359375 193.82734375 264.45 191.15 264.4751953125 191.125 264.5 191.1 267.3025390625 188.3580078125 270.6 187.15
L 270.65 187.1
Q 272.31953125 186.51484375 274.1 186.25 274.1041015625 186.2958984375 274.05 186.3 273.05 187.3501953125 273.05 188.8
L 273.05 204.6
Q 273.05 206.0498046875 274.05 207.05 275.1001953125 208.1 276.55 208.1 277.9998046875 208.1 279 207.05 280.05 206.0498046875 280.05 204.6
L 280.05 188.8
Q 280.05 187.3501953125 279 186.3 278.965234375 186.265234375 278.9 186.2 280.960546875 186.4345703125 282.85 187.1
L 282.85 187.15
Q 286.154296875 188.36328125 288.95 191.1
L 289 191.15
Q 294.0453125 196.1712890625 294.05 203.3
L 294.05 222.75
Q 294.05 222.9103515625 294.05 223.05 293.7537109375 229.6962890625 288.95 234.45 283.9029296875 239.50546875 276.75 239.5 269.6322265625 239.4958984375 264.5 234.5 264.4880859375 234.4869140625 264.45 234.45 261.81796875 231.6953125 260.5 228.35
L 260.5 228.4
Q 259.59453125 225.97890625 259.5 223.2 259.5 223 259.5 222.75
L 259.5 203.3
Q 259.496875 200.0322265625 260.5 197.15 Z"/>
</g>
</defs>

<g transform="matrix( 1, 0, 0, 1, -248.5,-152.95) ">
<use xlink:href="#Layer0_0_MEMBER_0_FILL"/>
</g>
</svg>
