
<svg xmlns="http://www.w3.org/2000/svg" version="1.1" xmlns:xlink="http://www.w3.org/1999/xlink" preserveAspectRatio="none" x="0px" y="0px" width="86px" height="65px" viewBox="0 0 86 65">
<defs>
<g id="Layer0_0_MEMBER_0_FILL">
<path fill="#EA5E5E" stroke="none" d="
M 290.65 177.05
Q 289.2419921875 177.2548828125 288.35 178.4 287.451171875 179.544140625 287.6 180.95 287.8060546875 182.41796875 288.95 183.3 291.73359375 185.4908203125 293.5 188.75
L 293.55 188.8
Q 296.18046875 193.551953125 296.2 199.45 296.2025390625 199.7328125 296.25 199.95 296.2025390625 200.2193359375 296.2 200.45 296.18046875 206.3982421875 293.55 211.15
L 293.5 211.15
Q 291.73359375 214.4591796875 288.95 216.6 287.8060546875 217.53203125 287.6 218.95 287.451171875 220.405859375 288.35 221.55 289.2419921875 222.6951171875 290.65 222.85 292.1046875 223.0587890625 293.25 222.15 297.16640625 219.1408203125 299.65 214.5
L 299.65 214.55
Q 303.11953125 208.301953125 303.2 200.5 303.202734375 200.2419921875 303.15 199.95 303.202734375 199.7080078125 303.2 199.4 303.11953125 191.6482421875 299.65 185.4
L 299.65 185.4
Q 297.16640625 180.8091796875 293.25 177.75 292.1046875 176.8912109375 290.65 177.05
M 297 169.65
Q 296.3326171875 170.9458984375 296.75 172.3 297.219140625 173.705078125 298.5 174.35 304.5603515625 177.5220703125 307.75 184.35
L 307.75 184.35
Q 310.8341796875 191.066796875 310.65 199.25 310.642578125 199.6375 310.7 199.95 310.642578125 200.3125 310.65 200.65 310.8341796875 208.883203125 307.75 215.6
L 307.75 215.55
Q 304.5603515625 222.427734375 298.5 225.55 297.219140625 226.244921875 296.75 227.6 296.3326171875 229.0041015625 297 230.3 297.65703125 231.5849609375 299 232 300.4 232.4794921875 301.7 231.8 309.8396484375 227.671875 314.1 218.5
L 314.1 218.5
Q 317.865625 210.416796875 317.65 200.5 317.6416015625 200.24140625 317.6 199.95 317.6416015625 199.70859375 317.65 199.4 317.865625 189.533203125 314.1 181.45
L 314.1 181.4
Q 309.8396484375 172.2779296875 301.7 168.1 300.4 167.4703125 299 167.9 297.65703125 168.3650390625 297 169.65
M 277.95 188.9
Q 278.280859375 190.3322265625 279.5 191.1 284.355078125 194.294921875 284.6 199.55 284.6083984375 199.7796875 284.6 199.95 284.6083984375 200.1703125 284.6 200.35 284.355078125 205.655078125 279.5 208.8 278.280859375 209.6177734375 277.95 211 277.678125 212.4361328125 278.45 213.65 279.2654296875 214.8705078125 280.65 215.15 282.084765625 215.46953125 283.3 214.65 291.3451171875 209.44453125 291.6 200.6 291.6103515625 200.28984375 291.55 199.95 291.6103515625 199.66015625 291.6 199.3 291.3451171875 190.50546875 283.3 185.25 282.084765625 184.4802734375 280.65 184.75 279.2654296875 185.0794921875 278.45 186.3 277.678125 187.5138671875 277.95 188.9 Z"/>
</g>

<g id="Layer0_0_MEMBER_1_FILL">
<path fill="#EA5E5E" stroke="none" d="
M 235.05 188.55
Q 232.3904296875 190.9466796875 232.4 194.5
L 232.4 210.15
Q 232.2904296875 213.0611328125 234.75 215.9 234.789453125 215.9705078125 234.8 216 236.973046875 218.450390625 240.6 218.45
L 244.35 218.45
Q 246.3236328125 218.5826171875 248.65 217
L 265.9 231.35
Q 266.9802734375 232.2388671875 268.35 232.15 269.75546875 232.0552734375 270.7 231 271.6572265625 229.9951171875 271.65 228.6
L 271.05 172.95
Q 271.0400390625 171.5296875 270 170.5 269.0080078125 169.5087890625 267.55 169.5 266.1337890625 169.4953125 265.1 170.5
L 247.85 187.3
Q 245.962109375 186.35859375 244.35 186.45
L 240.6 186.45
Q 237.1357421875 186.4498046875 235.05 188.55
M 239.75 193.75
Q 239.80625 193.6892578125 239.85 193.6 240.1634765625 193.45 240.6 193.45
L 244.35 193.45
Q 244.6203125 193.53046875 244.95 193.7 245.0609375 193.917578125 245.1 194.1
L 245.1 209.15
Q 245.1 209.406640625 245.1 209.65 245.1 209.893359375 245.1 210.15 245.0634765625 210.6748046875 244.8 211.2 244.545703125 211.36953125 244.35 211.45
L 240.6 211.45
Q 240.22421875 211.4494140625 239.95 211.25 239.4990234375 210.6916015625 239.4 210.15
L 239.4 194.5
Q 239.4095703125 194.0533203125 239.75 193.75
M 252 193
Q 252.098046875 192.9484375 252.2 192.85
L 264.15 181.2 264.55 221.1 252.1 210.7
Q 252.1056640625 210.4416015625 252.1 210.15 252.1 209.893359375 252.05 209.65 252.1 209.406640625 252.1 209.15
L 252.1 194
Q 252.0947265625 193.8416015625 252.05 193.65 252.044140625 193.3509765625 252 193 Z"/>
</g>
</defs>

<g transform="matrix( 1, 0, 0, 1, -232,-167.5) ">
<use xlink:href="#Layer0_0_MEMBER_0_FILL"/>
</g>

<g transform="matrix( 1, 0, 0, 1, -232,-168.3) ">
<use xlink:href="#Layer0_0_MEMBER_1_FILL"/>
</g>
</svg>
