
<svg xmlns="http://www.w3.org/2000/svg" version="1.1" xmlns:xlink="http://www.w3.org/1999/xlink" preserveAspectRatio="none" x="0px" y="0px" width="22px" height="22px" viewBox="0 0 22 22">
<defs>
<g id="Layer0_0_FILL">
<path fill="#8989EF" stroke="none" d="
M 136.05 1816.6
Q 132.85 1813.4 128.3 1813.4 123.75 1813.4 120.5 1816.6 117.3 1819.85 117.3 1824.4 117.3 1828.95 120.5 1832.15 123.75 1835.4 128.3 1835.4 132.85 1835.4 136.05 1832.15 139.3 1828.95 139.3 1824.4 139.3 1819.85 136.05 1816.6
M 126.6 1818.5
Q 126.3 1818.7 126.3 1819 126.3 1819.1 126.45 1819.45 126.9 1820.2 126.9 1820.7 126.9 1821.2 126.6 1821.5 126.25 1821.85 125.75 1821.85 125.2 1821.85 124.85 1821.45 124.5 1821.1 124.5 1820.4 124.5 1819.25 125.5 1818.45 126.45 1817.55 128.25 1817.55 130.1 1817.55 131.1 1818.5 132.1 1819.35 132.1 1820.65 132.1 1821.5 131.6 1822.35 131.1 1823.1 129.6 1824.05 128.65 1824.7 128.35 1825.2 128.05 1825.7 127.95 1826.7
L 127.55 1826.7
Q 127.55 1825.65 127.7 1825.1 127.8 1824.55 128.35 1823.65 128.85 1822.75 129 1822.1 129.15 1821.55 129.15 1820.75 129.15 1819.45 128.6 1818.8 128.1 1818.2 127.45 1818.2 126.9 1818.2 126.6 1818.5
M 126.75 1828.55
Q 127.25 1828.1 127.85 1828.1 128.5 1828.1 129 1828.55 129.45 1829 129.45 1829.65 129.45 1830.3 129 1830.75 128.5 1831.25 127.85 1831.25 127.25 1831.25 126.75 1830.75 126.3 1830.3 126.3 1829.65 126.3 1829 126.75 1828.55 Z"/>
</g>
</defs>

<g transform="matrix( 1, 0, 0, 1, -117.3,-1813.4) ">
<use xlink:href="#Layer0_0_FILL"/>
</g>
</svg>
