
<svg xmlns="http://www.w3.org/2000/svg" version="1.1" xmlns:xlink="http://www.w3.org/1999/xlink" preserveAspectRatio="none" x="0px" y="0px" width="27px" height="18px" viewBox="0 0 27 18">
<defs>
<g id="Layer0_0_FILL">
<path fill="#8989EF" stroke="none" d="
M 204.25 1825.75
L 193.65 1816.15 193.65 1832.8 204.25 1825.75
M 193.65 1815.4
L 193.65 1815.5 193.75 1815.4 193.65 1815.4
M 220.05 1816
L 209.55 1825.7 220.05 1832.8 220.05 1816
M 206.95 1828
L 205 1826.2 194.5 1833.4 219.3 1833.4 208.85 1826.2 206.95 1828
M 205.5 1825.45
L 206.95 1826.75 208.45 1825.45
Q 208.45 1825.4 208.5 1825.4
L 219.35 1815.4 194.4 1815.4 205.35 1825.4
Q 205.45 1825.4 205.5 1825.45
M 220.05 1815.4
L 220 1815.4 220.05 1815.5 220.05 1815.4 Z"/>
</g>
</defs>

<g transform="matrix( 1, 0, 0, 1, -193.35,-1815.4) ">
<use xlink:href="#Layer0_0_FILL"/>
</g>
</svg>
