
<svg xmlns="http://www.w3.org/2000/svg" version="1.1" xmlns:xlink="http://www.w3.org/1999/xlink" preserveAspectRatio="none" x="0px" y="0px" width="27px" height="22px" viewBox="0 0 27 22">
<defs>
<g id="Layer0_0_FILL">
<path fill="#8989EF" stroke="none" d="
M 394.45 1822.75
Q 393 1821.3 390.95 1821.3
L 387.75 1821.3
Q 387.7 1823.25 386.3 1824.6 388.1 1825.15 389.3 1826.65 390.45 1828.2 390.45 1830.2
L 390.45 1831.4
Q 393.65 1831.3 395.6 1830.35
L 395.9 1830.2 395.9 1826.2
Q 395.9 1824.2 394.45 1822.75
M 393.2 1817.2
Q 393.2 1815.6 392.05 1814.5 390.95 1813.4 389.35 1813.4 387.75 1813.4 386.65 1814.5 385.55 1815.6 385.5 1817.15 386.45 1817.75 387.05 1818.65 387.6 1819.6 387.75 1820.7 388.55 1821.05 389.35 1821.05 390.95 1821.05 392.05 1819.95 393.2 1818.8 393.2 1817.2
M 384.65 1825.25
L 381.35 1825.25
Q 379.35 1825.25 377.9 1826.7 376.45 1828.15 376.45 1830.2
L 376.45 1834.25 376.75 1834.3
Q 380.15 1835.4 383.45 1835.4 385.7 1835.4 387.65 1834.85 388.8 1834.55 389.25 1834.3
L 389.5 1834.15 389.55 1834.15 389.55 1830.2
Q 389.55 1828.15 388.1 1826.7 386.65 1825.25 384.65 1825.25
M 369.7 1826.2
L 369.7 1830.25 370 1830.35
Q 372.7 1831.2 375.5 1831.4
L 375.5 1830.2
Q 375.55 1828.2 376.7 1826.65 377.85 1825.15 379.7 1824.6 378.3 1823.3 378.25 1821.3
L 374.65 1821.3
Q 372.6 1821.3 371.15 1822.75 369.7 1824.2 369.7 1826.2
M 383 1817.35
Q 381.4 1817.35 380.3 1818.45 379.15 1819.6 379.15 1821.15 379.15 1822.75 380.3 1823.9 381.4 1825 383 1825 384.6 1825 385.7 1823.9 386.85 1822.75 386.85 1821.15 386.85 1819.6 385.7 1818.45 384.6 1817.35 383 1817.35
M 380.1 1817.45
L 380.1 1817.2
Q 380.1 1815.6 378.95 1814.5 377.85 1813.4 376.25 1813.4 374.65 1813.4 373.55 1814.5 372.4 1815.6 372.4 1817.2 372.4 1818.8 373.55 1819.95 374.65 1821.05 376.25 1821.05 377.35 1821.05 378.3 1820.45 378.55 1818.6 380.1 1817.45 Z"/>
</g>
</defs>

<g transform="matrix( 1, 0, 0, 1, -369.3,-1813.4) ">
<use xlink:href="#Layer0_0_FILL"/>
</g>
</svg>
