
<svg xmlns="http://www.w3.org/2000/svg" version="1.1" xmlns:xlink="http://www.w3.org/1999/xlink" preserveAspectRatio="none" x="0px" y="0px" width="24px" height="23px" viewBox="0 0 24 23">
<defs>
<g id="Layer0_0_FILL">
<path fill="#8989EF" stroke="none" d="
M 515.35 1833.45
L 499.35 1833.45 499.35 1835.45 515.35 1835.45 515.35 1833.45
M 510.35 1830.45
L 504.35 1830.45 504.35 1832.45 510.35 1832.45 510.35 1830.45
M 494.85 1813.35
L 494.85 1829.35 518.85 1829.35 518.85 1813.35 494.85 1813.35
M 496.85 1827.45
L 496.85 1814.45 516.85 1814.45 516.85 1827.45 496.85 1827.45
M 497.85 1815.45
L 497.85 1826.5 515.85 1826.5 515.85 1815.45 497.85 1815.45 Z"/>
</g>
</defs>

<g transform="matrix( 1, 0, 0, 1, -494.85,-1812.9) ">
<use xlink:href="#Layer0_0_FILL"/>
</g>
</svg>
