
<svg xmlns="http://www.w3.org/2000/svg" version="1.1" xmlns:xlink="http://www.w3.org/1999/xlink" preserveAspectRatio="none" x="0px" y="0px" width="311px" height="72px" viewBox="0 0 311 72">
<defs>
<g id="logo_WS_0_Layer0_0_MEMBER_0_MEMBER_0_FILL">
<path fill="#5353A6" stroke="none" d="
M 53.9 23.65
Q 53.55 23.25 51.9 23.25 50.25 23.25 49.55 23.65
L 47.45 27.7
Q 45.1 31.75 40 40.8 34.75 49.8 33.25 52.4 31.7 54.9 31.3 55.5 31.15 56.15 30.85 56.7 30.45 57.15 30.1 57.7 29.75 58.15 29.35 58.4 29.1 58.8 28.75 58.8 28.45 58.8 27.5 57 26.55 55.2 25.4 52.7 24.15 50.15 22.9 47.4 21.65 44.7 19.1 40.65 12.15 26.9 10.65 24.35 10.6 24.1 10.6 24 10.5 23.95 10.4 23.65 10.2 23.4 10.1 23.4 10.05 23.4 9.95 23.25
L 9.75 23 8.95 23
Q 7.4 23 6.15 23.45 4.95 24 4.95 24.75 4.95 25.65 4.5 28.4 3.85 31.25 3.65 33.9 3.3 36.75 1.75 49.15 0.3 61.5 -0.05 65.1 -0.35 68.8 -0.65 70.35 -0.9 71.8 -0.9 72.5 -0.8 73.45 -0.4 73.6 -0.05 73.75 1.75 73.75 3.5 73.7 4.2 73.05 4.95 72.45 5.05 69.7 5.75 62.25 6.15 58.15 6.45 54.05 7.45 44.15 8.55 34.25 8.55 33.85 8.85 34.7 12.85 42.35 16.85 50 20.3 56.85 23.85 63.85 24.4 65.25 25 66.6 26 68.25 27 69.85 27.55 69.85 28.2 69.85 29.75 67.7 31.15 65.6 33.2 62 35.3 58.4 36.45 56.45 37.8 54.25 42.7 45.85 47.6 37.45 48.7 35.35 49 37.35 50.2 52.4 51.45 67.6 51.45 68.6 51.5 73.75 53.7 73.75 57.75 73.75 58.15 73.3 58.85 72.9 58.85 71.1 58.85 69.6 56.8 50.7 55.25 35.7 55.15 34.65 55.1 33.45 54.7 29.45 54.55 25.45 53.9 23.65
M 84.9 55.35
Q 84.25 55.2 82.85 55.2 75.2 55.2 70.15 57.8 65.1 60.35 65.1 65.9 65.1 69.6 67.9 71.65 74.45 76.25 82.85 70.95 84.7 69.95 85.25 69.8 85.4 69.8 85.4 70.5 85.25 73 87.45 73 90.05 73 90.8 72.5 91.4 72.05 91.4 70.15
L 91.4 55.2
Q 91.4 48.2 87.85 44.6 84.25 40.85 77.3 40.85 74.25 40.85 71.15 41.65 67.9 42.45 67.9 43.6 67.9 45 68.35 45.7 68.75 46.65 69.35 46.65 70 46.65 72.15 46.1 74.45 45.45 76.3 45.45 80.45 45.45 82.7 47.4 84.95 49.5 84.95 53.7 84.9 54.2 84.9 55.35
M 84.9 58.4
Q 84.95 58.8 84.95 61.05 84.95 63.4 84.9 65.35 84.8 66.35 82.55 67.7 80.15 69.05 77.3 69.05 71.55 69.05 71.55 65.25 71.55 63.4 72.8 62.15 74.9 59.4 84.9 58.4
M 100.15 42.1
L 97.35 41.9
Q 96.1 41.9 95.5 42.8 95.15 43.5 95.15 45.55 95.15 46.8 96.95 46.8
L 99.7 46.55
Q 100.5 46.55 100.85 46.8 101.15 46.95 101.15 47.95
L 100.85 62.45
Q 100.85 66.35 102.25 69.3 105.05 73.75 110.05 73.75 118.85 73.75 118.85 68.95 118.85 67.2 115.85 68.05 114.1 68.4 111.75 68.4 109.3 68.4 108.35 67 107.4 65.4 107.4 62.45
L 107.55 52.1
Q 107.55 47.95 107.65 46.8 108.05 46.65 109.15 46.65
L 113.85 46.9
Q 117.7 46.9 117.7 42.95 117.7 41.55 116.45 41.55
L 110.85 41.95
Q 108.9 41.95 108.05 41.9
L 108.2 34
Q 108.2 32.75 106.95 32.75 102.1 32.75 101.25 33.05 101.25 33.45 101.25 35.35
L 101.25 39.35
Q 101.25 39.45 101.25 39.7 101.25 42.1 100.15 42.1
M 127.15 20.3
Q 124.65 20.3 124.3 21.35 123.85 22.55 123.85 25.75
L 123.85 29.1
Q 123.85 30.2 123.85 31.5 123.75 32.85 123.75 34.25
L 123.95 56.55
Q 123.95 63.05 124.55 66.7 125.2 69.25 126.05 70.5 126.9 72.05 128.7 73 130.2 73.75 132.9 73.75 135.65 73.75 137.9 73.05 141.4 72.05 141.4 69.5 141.4 68.3 140.45 68.3 140 68.3 138.3 68.7 136.65 69.05 135 69.05 133.4 69.05 132.05 67.85 130.75 66.45 130.75 64.35
L 130.65 22.1
Q 130.65 20.9 130 20.65 129.45 20.3 127.15 20.3
M 164.65 55.35
Q 164 55.2 162.75 55.2 155.05 55.2 149.8 57.8 144.85 60.35 144.85 65.9 144.85 69.6 147.8 71.65 154.2 76.25 162.75 70.95 164.45 69.95 165 69.8 165.2 69.8 165.2 70.5 165 73 167.3 73 169.9 73 170.55 72.5 171.25 72.05 171.25 70.15
L 171.25 55.2
Q 171.25 48.2 167.75 44.6 164 40.85 157.1 40.85 154.1 40.85 150.9 41.65 147.8 42.45 147.8 43.6 147.8 45 148 45.7 148.35 46.65 149.1 46.65 149.8 46.65 152 46.1 154.2 45.45 156.2 45.45 160.2 45.45 162.35 47.4 164.7 49.5 164.7 53.7 164.65 54.2 164.65 55.35
M 164.65 58.4
Q 164.7 58.8 164.7 61.05 164.7 63.4 164.65 65.35 164.55 66.35 162.3 67.7 160 69.05 157.1 69.05 151.4 69.05 151.4 65.25 151.4 63.4 152.65 62.15 154.75 59.4 164.65 58.4
M 180.55 42.1
Q 178.45 42.1 178.45 44.7
L 178.45 73.3 181.8 73.45
Q 183.5 73.45 183.95 73.05 184.45 72.7 184.45 71.6
L 184.45 67.3
Q 184.45 63.8 184.35 57.15
L 184.2 47.65
Q 186.3 46.25 190.7 46.25 194.9 46.25 196.75 49.15 198.4 52.1 198.4 57.8
L 198.4 67.05
Q 198.4 71.4 198.6 73.05 200.7 73.45 202.2 73.45 203.8 73.45 204.05 73.15 204.3 73 204.3 71.5
L 204.6 59.25
Q 204.6 52.7 203.6 48.75 202.9 46.25 201.7 44.9 200.6 43.35 198.4 42.35 196.2 41.35 193.35 41.35 190.6 41.35 186.25 43.05 184.45 43.6 183.95 43.9 183.65 42.45 183.65 42.1
L 180.55 42.1
M 231.15 21.75
Q 230.9 22.1 230.9 23.45 230.9 24.75 230.85 26.2 230.85 26.3 230.85 26.45 230.85 27.05 230.85 28.4 230.85 30.9 230.85 35.55
L 230.75 42.45
Q 228 41.65 226.3 41.25 225.15 40.85 224.6 40.85 219.6 40.85 216.25 43.6 209.55 48.8 209.55 58.1 209.55 64.7 212.95 69.3 216.4 73.75 222 73.75 224.05 73.75 226.3 72.9 226.7 72.7 226.95 72.5 229.6 71.4 230.85 70.35 230.9 70.35 231.15 70.25 231.2 70.5 231.2 71.4 231.3 72.45 231.45 72.7 232.15 73.05 233.95 73.05 235.85 73.05 236.35 72.7 236.6 72.5 236.75 72.45 236.9 72.2 237.2 71.4 237.3 71.1 237.3 70.7 237.4 70.15 237.4 69.85 237.4 69.8 237.4 69.05
L 237.4 23.95
Q 237.4 22.4 237.05 21.3 236.75 20.55 236.2 20.2 235.5 19.9 233.8 19.9 231.95 19.9 231.45 20.75 231.3 21 231.2 21.3 231.2 21.6 231.15 21.75
M 224.65 45.6
Q 225.5 45.6 226.3 45.7 227.3 45.85 228.3 46.1 230.1 46.4 230.5 47.1 230.75 47.4 230.85 49.8 230.85 50.9 230.85 52.4
L 230.85 65.65
Q 230.85 65.95 230.85 66.15 230.65 67.5 228.4 68.3 227.5 68.6 226.3 68.8 225.6 68.8 224.9 68.8 220.5 68.8 218.05 65.4 215.55 62.25 215.55 56.45 215.6 51.6 218.1 48.75 220.6 45.6 224.65 45.6
M 260.35 45.7
Q 260.75 46.65 261.45 46.65 262.1 46.65 264.25 46.1 266.45 45.45 268.4 45.45 272.45 45.45 274.7 47.4 277 49.5 277 53.7 277 54.2 277 55.35 276.3 55.2 275 55.2 267.3 55.2 262.2 57.8 256.95 60.35 256.95 65.9 256.95 69.6 260 71.65 266.35 76.25 275 70.95 276.75 69.95 277.3 69.8 277.55 69.8 277.55 70.5 277.35 73 279.55 73 282.05 73 282.8 72.5 283.55 72.05 283.55 70.15
L 283.55 55.2
Q 283.55 48.2 280 44.6 276.3 40.85 269.35 40.85 266.35 40.85 263.2 41.65 260 42.45 260 43.6 260 45 260.35 45.7
M 277 58.4
Q 277 58.8 277 61.05 277 63.4 276.9 65.35 276.8 66.35 274.45 67.7 272.3 69.05 269.35 69.05 263.75 69.05 263.75 65.25 263.75 63.4 264.8 62.15 267 59.4 277 58.4
M 244.85 42.95
Q 244.1 43.25 244.1 45.25
L 243.95 49.6
Q 243.75 51.45 243.75 58.35
L 244.1 71.5
Q 244.1 73.15 244.55 73.45 245.3 73.75 247.6 73.75 249.85 73.75 250.45 73.45 250.7 73.3 250.7 72.45
L 250.45 47.7
Q 250.45 46 250.4 42.8 249.15 42.5 247.3 42.5 245.5 42.5 244.85 42.95 Z"/>
</g>

<g id="logo_WS_0_Layer0_0_MEMBER_0_MEMBER_1_FILL">
<path fill="#993399" stroke="none" d="
M 254.35 15
L 244.2 25.2 258.1 28.9 254.35 15 Z"/>

<path fill="#0099CC" stroke="none" d="
M 244.2 25.2
L 254.35 15 240.4 11.3 244.2 25.2 Z"/>

<path fill="#0069B7" stroke="none" d="
M 244.2 25.2
L 248.05 39.05 258.1 28.9 244.2 25.2 Z"/>

<path fill="#999900" stroke="none" d="
M 258.1 28.9
L 268.25 18.75 254.35 15 258.1 28.9 Z"/>
</g>

<g id="logo_WS_0_Layer0_0_MEMBER_1_FILL">
<path fill="#8686C4" stroke="none" d="
M 150.9 10.95
Q 150.85 10.4 150.6 10 148.9 10 148.05 10.2 147.2 10.4 146.9 11.05 146.9 11.95 146.9 13.1 146.95 14.3 146.95 15.85
L 146.95 28.4
Q 147.05 30.75 146.7 32.05 146.4 33.35 145.85 33.9 145.3 34.4 144.7 34.55 144.1 34.65 143.6 34.65 143.35 34.65 143.05 34.6 142.7 34.55 142.3 34.45 142.2 34.7 142.05 35.05 141.95 35.4 141.9 35.9 142 36.3 142.35 36.75 142.75 37.2 143.35 37.4 143.65 37.5 144.05 37.55 144.4 37.6 144.85 37.6 145.1 37.6 145.45 37.6 145.75 37.6 146.05 37.55 146.75 37.4 147.3 37.2 147.9 37 148.35 36.65 149.5 35.9 150.05 34.7 150.65 33.5 150.8 31.8 151 30.1 151 27.85
L 151 12.45
Q 151 11.5 150.9 10.95
M 168.4 24.6
Q 168.4 22.4 168.45 20.55 168.45 18.65 168.45 17.15
L 167.5 17.15
Q 166.3 17.15 165.75 17.25 165.25 17.3 164.9 17.65 164.6 18 164.55 18.4 164.45 18.85 164.45 19.45
L 164.45 31.2
Q 164 31.75 163.2 32.1 162.45 32.4 161.6 32.4 160.8 32.4 160.25 32.1 159.7 31.8 159.4 30.95 159.1 30.1 159.1 28.5
L 159.45 21.7
Q 159.45 20.3 159.35 19.5 159.25 18.7 159.05 18.1 158.95 17.6 158.55 17.15 158.15 16.75 157.35 16.7 157.3 16.7 157.2 16.7 157.05 16.75 156.85 16.8 156.05 17.15 155.6 17.45 155.15 17.7 154.95 17.9 155.2 18.6 155.3 19.4 155.45 20.2 155.45 21.2
L 155.1 29
Q 155.1 31 155.55 32.45 156 33.85 157.2 34.65 158.4 35.4 160.65 35.5 161.35 35.5 161.95 35.4 162.55 35.3 163.15 35.1 163.65 34.9 164.2 34.65 164.75 34.35 165.35 33.95 165.5 34.3 165.85 34.5 166.2 34.75 166.7 34.75 166.75 34.75 166.9 34.75 167.05 34.7 167.25 34.7 167.85 34.4 168.2 34.15 168.6 33.95 168.8 33.75 168.6 33.15 168.5 32.5 168.4 31.8 168.4 30.9
L 168.4 24.6
M 191.2 17.35
Q 190.3 17.5 189.95 18.2 189.95 18.95 190 19.85 190 20.8 190 22.05
L 190 28.6
Q 190 29.5 190 30.4 189.95 31.25 189.95 32.05
L 189.95 35.15
Q 191.25 35.1 191.95 35.1 192.7 35.05 193 35 193.35 34.9 193.5 34.7 193.75 34.2 193.9 33.75 194 33.25 194 32.6
L 194 20
Q 194 18.8 193.95 18.25 193.9 17.7 193.65 17.25
L 193.35 17.15
Q 192.1 17.15 191.2 17.35
M 185.65 19.85
Q 185.2 18.4 184 17.6 182.8 16.8 180.45 16.8 179.8 16.8 179.15 16.95 178.6 17 178 17.2 177.5 17.4 176.9 17.7 176.35 17.95 175.75 18.35 175.6 18 175.25 17.8 174.9 17.55 174.4 17.55 174.35 17.55 174.2 17.55 174.05 17.6 173.9 17.65 173.25 17.9 172.9 18.1 172.5 18.35 172.3 18.6 172.5 19.15 172.6 19.85 172.7 20.5 172.7 21.4
L 172.7 27.75
Q 172.7 29.9 172.7 31.8 172.7 33.65 172.65 35.15
L 173.65 35.15
Q 174.85 35.15 175.35 35.05 175.9 35 176.25 34.7 176.5 34.3 176.6 33.9 176.7 33.45 176.65 32.85
L 176.65 21.3
Q 177.2078125 20.7169921875 177.85 20.35 178.6 19.9 179.5 19.9 180.9 19.85 181.5 20.75 182.1 21.6 182.05 23.6
L 182.05 33.45
Q 182.05 33.9 182.15 34.3 182.25 34.75 182.5 35.15 183.7 35.15 184.45 35.1 185.15 35.05 185.5 34.9 185.9 34.8 186.15 34.55 186.1 33.45 186.1 32.1 186.05 30.75 186.05 29.2
L 186.05 23.5
Q 186.1 21.35 185.65 19.85
M 194.25 10.95
Q 194.3 9.85 193.85 9.3 193.45 8.75 192.15 8.75 191 8.75 190.4 9.35 189.8 9.9 189.8 11 189.8 12.2 190.3 12.8 190.8 13.35 191.95 13.35 193.25 13.3 193.75 12.7 194.25 12.05 194.25 10.95
M 210.2 19.1
Q 208.35 16.8 204.65 16.8 202.4 16.75 200.65 17.8 198.95 18.8 198 20.9 197 23 197 26.25 197 31.15 198.95 33.4 200.9 35.6 204.55 35.6 206.7 35.6 208.4 34.5 210.1 33.45 211.05 31.3 212.05 29.2 212.05 26 212.05 21.45 210.2 19.1
M 204.55 19.65
Q 206.1 19.6 207 21.1 207.9 22.65 207.9 26.15 207.9 28.6 207.45 30.05 207 31.55 206.25 32.15 205.5 32.8 204.6 32.8 203.6 32.8 202.85 32.15 202.05 31.5 201.65 30.05 201.2 28.55 201.15 26.1 201.2 22.6 202.2 21.1 203.15 19.6 204.55 19.65
M 224.5 18
Q 224.4 17.55 223.95 17.3 223.45 17 222.65 16.95 222.1 16.85 221.5 16.95 220.95 17 220.45 17.2 219.9 17.45 219.35 17.7 218.75 17.95 218.2 18.35 218.05 17.9 217.75 17.75 217.45 17.55 216.85 17.55 216.75 17.55 216.65 17.55 216.5 17.6 216.35 17.65 215.7 17.9 215.35 18.1 214.95 18.35 214.7 18.6 214.9 19.15 215.05 19.85 215.2 20.5 215.2 21.4
L 215.15 27.7
Q 215.15 29.9 215.15 31.8 215.15 33.65 215.1 35.15 216.3 35.15 217 35.15 217.65 35.1 218.05 35 218.45 34.9 218.7 34.7 218.95 34.3 219.05 33.95 219.1 33.6 219.1 33.15
L 219.1 21.25
Q 219.6 20.75 220.25 20.5 220.9 20.3 221.65 20.3 221.75 20.3 221.85 20.3 221.95 20.3 222.15 20.35 222.35 20.4 222.65 20.4 222.95 20.4 223.25 20.4 223.5 20.45 223.55 20.4 223.65 20.4 223.85 20.35 224.25 19.75 224.4 19.1 224.55 18.45 224.5 18 Z"/>
</g>
</defs>

<g transform="matrix( 1.0927734375, 0, 0, 1.0927734375, 1.1,-9.1) ">
<g transform="matrix( 1, 0, 0, 1, 0,0) ">
<use xlink:href="#logo_WS_0_Layer0_0_MEMBER_0_MEMBER_0_FILL"/>
</g>

<g transform="matrix( 1, 0, 0, 1, 0,0) ">
<use xlink:href="#logo_WS_0_Layer0_0_MEMBER_0_MEMBER_1_FILL"/>
</g>

<g transform="matrix( 1, 0, 0, 1, 0,0) ">
<use xlink:href="#logo_WS_0_Layer0_0_MEMBER_1_FILL"/>
</g>
</g>
</svg>
