
<svg xmlns="http://www.w3.org/2000/svg" version="1.1" xmlns:xlink="http://www.w3.org/1999/xlink" preserveAspectRatio="none" x="0px" y="0px" width="125px" height="80px" viewBox="0 0 125 80">
<defs>
<g id="Layer0_0_FILL">
<path fill="#FF6905" stroke="none" d="
M 336.45 233.5
Q 335.4498046875 232.5 334 232.5
L 324 232.5 324 163.95
Q 324 162.5001953125 322.95 161.45 321.9498046875 160.45 320.5 160.45
L 298.25 160.45
Q 296.8001953125 160.45 295.75 161.45 294.75 162.5001953125 294.75 163.95
L 294.75 232.5 290.1 232.5 290.1 177.05
Q 290.1 175.6001953125 289.05 174.55 288.0498046875 173.55 286.6 173.55
L 264.4 173.55
Q 262.9501953125 173.55 261.9 174.55 260.9 175.6001953125 260.9 177.05
L 260.9 232.5 256.25 232.5 256.25 190.2
Q 256.25 188.7501953125 255.2 187.7 254.1998046875 186.7 252.75 186.7
L 230.5 186.7
Q 229.0501953125 186.7 228 187.7 227 188.7501953125 227 190.2
L 227 232.5 219.55 232.5 219.55 163.95
Q 219.55 162.5001953125 218.5 161.45 217.4998046875 160.45 216.05 160.45 214.6001953125 160.45 213.55 161.45 212.55 162.5001953125 212.55 163.95
L 212.55 236
Q 212.55 237.4498046875 213.55 238.45 214.6001953125 239.5 216.05 239.5
L 334 239.5
Q 335.4498046875 239.5 336.45 238.45 337.5 237.4498046875 337.5 236 337.5 234.5501953125 336.45 233.5
M 267.9 180.55
L 283.1 180.55 283.1 232.5 267.9 232.5 267.9 180.55
M 301.75 167.45
L 317 167.45 317 232.5 301.75 232.5 301.75 167.45
M 234 193.7
L 249.25 193.7 249.25 232.5 234 232.5 234 193.7 Z"/>
</g>
</defs>

<g transform="matrix( 1, 0, 0, 1, -212.5,-159.95) ">
<use xlink:href="#Layer0_0_FILL"/>
</g>
</svg>
