
<svg xmlns="http://www.w3.org/2000/svg" version="1.1" xmlns:xlink="http://www.w3.org/1999/xlink" preserveAspectRatio="none" x="0px" y="0px" width="133px" height="82px" viewBox="0 0 133 82">
<defs>
<g id="Layer0_0_FILL">
<path fill="#FFCC00" stroke="none" d="
M 341.2 217.5
Q 341.203125 207.9208984375 334.4 201.1
L 334.35 201.05
Q 329.483984375 196.105078125 323.05 194.75 321.869921875 187.620703125 316.45 182.15 309.5078125 175.2080078125 299.5 175.2 292.9111328125 175.2072265625 287.6 178.3 285.2185546875 173.4140625 281 169.2 270.9958984375 159.2515625 256.9 159.25 242.6962890625 159.2537109375 232.7 169.2 222.696875 179.253125 222.7 193.35 222.701953125 195.5931640625 222.9 197.7 218.775 199.3126953125 215.35 202.7
L 215.3 202.7
Q 208.8525390625 209.1974609375 208.85 218.4 208.8591796875 227.6498046875 215.3 234.15 221.66953125 240.5224609375 230.6 240.7
L 318.75 240.7
Q 320.06875 240.69375 321.3 240.5
L 321.25 240.5
Q 328.8169921875 239.5333984375 334.35 233.85
L 334.4 233.85
Q 341.2064453125 227.0845703125 341.2 217.5
M 329.4 206
Q 334.196484375 210.7962890625 334.2 217.5 334.1935546875 224.19765625 329.4 228.9
L 329.4 228.95
Q 325.565625 232.86875 320.35 233.55
L 320.25 233.6
Q 319.53125 233.7064453125 318.75 233.7
L 230.7 233.7
Q 224.603515625 233.5505859375 220.25 229.2 215.840625 224.75 215.85 218.4 215.847265625 212.1201171875 220.25 207.7
L 220.25 207.65
Q 223.479296875 204.5314453125 227.6 203.6
L 230.9 202.8 230.25 199.5
Q 229.696484375 196.5947265625 229.7 193.35 229.7029296875 182.1466796875 237.65 174.15 245.603515625 166.24609375 256.9 166.25 268.1041015625 166.2482421875 276.05 174.15 280.83671875 178.9431640625 282.7 184.85
L 284.35 189.85 288.4 186.4
Q 293.060546875 182.18984375 299.5 182.2 306.5919921875 182.191796875 311.5 187.1 316.065625 191.7048828125 316.4 197.95
L 316.6 200.95 319.6 201.25
Q 325.2732421875 201.784765625 329.4 206
L 329.4 206 Z"/>

<path fill="#FFCD05" stroke="none" d="
M 229.2 214.55
Q 229.1 216.1 229.1 217.55
L 229.1 228.25 230.1 228.25 230.1 213.6 229.2 213.6 225.25 216.6 225.85 217.3
Q 228.75 215 228.95 214.8 229.1 214.7 229.2 214.55
M 253.65 221.3
Q 255.3 220.85 256.9 220.85 259.25 220.85 260.6 221.95 261.9 223.05 261.9 225.05 261.9 227.1 260.5 228.3 259.1 229.55 256.85 229.55 255.7 229.55 254.65 229.3 253.7 229 252.35 228.35
L 252.35 229.6
Q 253.15 230.05 254.35 230.35 255.5 230.55 256.85 230.55 259.8 230.55 261.45 229.05 263.15 227.6 263.15 224.85 263.15 222.45 261.55 221.1 259.95 219.8 257.15 219.8 256.1 219.8 254.15 220.15
L 254.75 213.95 262.05 213.95 262.05 212.75 253.6 212.75 252.9 220.85 253.65 221.3
M 244.45 214.5
L 244.45 213.6
Q 243.7 213.35 242.8 213.35 240.75 213.35 239.35 214.3 237.9 215.25 237.1 217.2 236.3 219.15 236.3 222 236.3 225.05 237.65 226.75 238.9 228.4 241.15 228.4 243.2 228.4 244.4 227.15 245.65 225.85 245.65 223.6 245.65 221.55 244.45 220.35 243.3 219.2 241.25 219.2 240.15 219.2 239.15 219.7 238.2 220.2 237.45 221.2
L 237.3 221.2
Q 237.45 217.8 238.85 216 240.2 214.15 242.7 214.15 243.75 214.15 244.45 214.5
M 244.6 223.6
Q 244.6 225.5 243.7 226.55 242.8 227.55 241.15 227.55 240.1 227.55 239.3 226.95 238.4 226.4 237.95 225.35 237.4 224.35 237.4 223.15 237.4 222.4 237.95 221.65 238.45 220.9 239.35 220.5 240.2 220.05 241.25 220.05 242.8 220.05 243.7 220.95 244.6 221.9 244.6 223.6
M 245.4 201.7
L 244.85 201.7 242.65 203.35 243 203.8
Q 244.65 202.5 244.7 202.4 244.8 202.35 244.85 202.3 244.8 203.15 244.8 203.95
L 244.8 209.9 245.4 209.9 245.4 201.7
M 254.05 205.8
Q 254.05 203.75 253.4 202.65 252.7 201.6 251.4 201.6 250.05 201.6 249.45 202.6 248.8 203.7 248.8 205.8 248.8 207.9 249.5 209 250.15 210.05 251.4 210.05 252.75 210.05 253.4 209 254.05 207.95 254.05 205.8
M 249.9 203.05
Q 250.35 202.1 251.4 202.1 252.45 202.1 253 203.05 253.45 203.95 253.45 205.8 253.45 207.65 253 208.6 252.45 209.5 251.4 209.5 250.4 209.5 249.9 208.65 249.35 207.7 249.35 205.8 249.35 203.95 249.9 203.05
M 277.85 216.05
Q 276.5 216.05 275.4 216.5 274.25 216.9 273 218
L 274.3 219.5
Q 275.3 218.75 276.1 218.4 276.85 218.1 277.75 218.1 278.8 218.1 279.4 218.7 279.95 219.2 279.95 220.2 279.95 220.95 279.7 221.6 279.5 222.2 278.9 222.95 278.4 223.65 276.7 225.35
L 272.9 229.1 272.9 230.95 282.9 230.95 282.9 228.85 275.85 228.85 275.85 228.8 278.45 226.25
Q 280.15 224.7 280.9 223.75 281.65 222.75 282 221.9 282.35 221 282.35 220.05 282.35 218.2 281.1 217.15 279.9 216.05 277.85 216.05
M 274.95 204
Q 275.6 203.25 275.6 202.15 275.6 200.8 274.6 200.05 273.6 199.3 271.85 199.3 269.7 199.3 268.05 200.5
L 268.95 201.8
Q 269.85 201.25 270.45 201.1 271.1 200.9 271.7 200.9 272.65 200.9 273.2 201.25 273.65 201.7 273.65 202.45 273.65 204.45 270.85 204.45
L 269.8 204.45 269.8 205.95 270.85 205.95
Q 272.4 205.95 273.2 206.35 273.95 206.8 273.95 207.75 273.95 208.8 273.25 209.35 272.6 209.8 271.2 209.8 270.45 209.8 269.6 209.65 268.8 209.45 268.05 209.05
L 268.05 210.75
Q 269.4 211.4 271.35 211.4 273.55 211.4 274.7 210.45 275.95 209.5 275.95 207.85 275.95 206.65 275.25 205.95 274.55 205.25 273.05 205.1
L 273.05 205.05
Q 274.3 204.8 274.95 204
M 293.15 216.2
L 290.8 216.2 284.15 225.9 284.15 227.7 290.8 227.7 290.8 230.95 293.15 230.95 293.15 227.7 295.15 227.7 295.15 225.8 293.15 225.8 293.15 216.2
M 290.85 218.9
L 290.95 218.9
Q 290.8 220.15 290.8 222.15
L 290.8 225.8 286.35 225.8 290 220.5
Q 290.6 219.55 290.85 218.9
M 309.05 212.95
L 309.05 212.3 300.7 212.3 300.7 213.2 307.95 213.2 302.65 225.2 303.7 225.2 309.05 212.95
M 313.7 220.2
Q 312.2 220.2 310.9 221.25
L 311.5 222
Q 312.1 221.5 312.65 221.3 313.15 221.1 313.75 221.1 314.5 221.1 315 221.55 315.45 222 315.45 222.75 315.45 223.3 315.25 223.75 315.1 224.2 314.75 224.7 314.4 225.15 313.2 226.35
L 310.8 228.8 310.8 229.7 316.95 229.7 316.95 228.7 312.1 228.7 312.1 228.65 314.15 226.65
Q 315.55 225.35 316 224.45 316.55 223.6 316.55 222.7 316.55 221.55 315.8 220.9 315.05 220.2 313.7 220.2
M 309.4 196.1
L 309.4 194.2 302.65 194.2 302.15 200.5 303.05 201.05
Q 303.55 201 304.15 200.9 304.8 200.8 305.15 200.8 308.1 200.8 308.1 203.1 308.1 204.35 307.4 204.95 306.65 205.55 305.25 205.55 304.45 205.55 303.55 205.35 302.6 205.15 301.9 204.7
L 301.9 206.6
Q 303.1 207.3 305.3 207.3 307.7 207.3 309 206.1 310.25 204.95 310.25 202.9 310.25 201.1 309.1 200.1 307.95 199.05 306.05 199.05 305.4 199.05 304.95 199.1 304.45 199.15 304.2 199.25
L 304.45 196.1 309.4 196.1
M 284.6 196.9
Q 284.95 196.6 285.15 196.45 285.05 197.3 285.05 198.75
L 285.05 207.15 287.15 207.15 287.15 194.2 285.4 194.2 281.6 197.2 282.65 198.5
Q 284.35 197.1 284.6 196.9
M 298.75 194.15
L 296.75 194.15 290.85 202.65 290.85 204.35 296.75 204.35 296.75 207.15 298.75 207.15 298.75 204.35 300.5 204.35 300.5 202.55 298.75 202.55 298.75 194.15
M 296.75 196.5
L 296.8 196.5
Q 296.75 197.6 296.75 199.35
L 296.75 202.55 292.8 202.55 296 197.95
Q 296.55 197.05 296.75 196.5
M 269.1 180.7
Q 270.45 180.7 271.15 181.4 271.9 182.1 271.9 183.35 271.9 184.2 271.6 185 271.35 185.7 270.75 186.5 270.15 187.35 268.35 189.15
L 264.3 193.15 264.3 194.7 274.3 194.7 274.3 193.05 266.5 193.05 266.5 193 269.8 189.7
Q 272.1 187.55 272.85 186.15 273.65 184.7 273.65 183.3 273.65 181.4 272.5 180.35 271.25 179.2 269.1 179.2 266.6 179.2 264.5 180.95
L 265.4 182.1
Q 266.5 181.3 267.3 181.05 268.15 180.7 269.1 180.7
M 257.15 179.2
Q 254.6 179.2 253.35 181.15 252.1 183.05 252.1 187.05 252.1 190.9 253.4 192.9 254.65 194.9 257.15 194.9 259.7 194.9 261 192.95 262.2 191 262.2 187.05 262.2 183.25 260.95 181.2 259.65 179.2 257.15 179.2
M 254.65 182.2
Q 255.45 180.7 257.15 180.7 258.9 180.7 259.65 182.25 260.45 183.75 260.45 187.05 260.45 190.3 259.65 191.9 258.9 193.4 257.15 193.4 255.45 193.4 254.65 191.9 253.85 190.35 253.85 187.05 253.85 183.7 254.65 182.2
M 240.85 182.55
L 241.7 183.75
Q 243.95 181.95 244.25 181.75 244.45 181.5 244.7 181.25 244.65 182.5 244.65 183.85
L 244.65 194.7 246.3 194.7 246.3 179.45 244.85 179.45 240.85 182.55
M 324.5 227.25
Q 324.5 226.5 324.05 225.9 323.55 225.25 322.4 224.75 323.35 224.3 323.8 223.7 324.2 223.1 324.2 222.4 324.2 221.35 323.45 220.8 322.7 220.2 321.4 220.2 320.15 220.2 319.4 220.8 318.65 221.45 318.65 222.4 318.65 223.15 319 223.75 319.4 224.3 320.3 224.8 318.3 225.7 318.3 227.3 318.3 228.55 319.15 229.2 319.95 229.8 321.45 229.8 322.85 229.8 323.7 229.1 324.5 228.4 324.5 227.25
M 322.7 221.45
Q 323.15 221.8 323.15 222.45 323.15 223.05 322.75 223.55 322.4 223.95 321.45 224.35 320.5 223.95 320.05 223.5 319.7 223.05 319.7 222.45 319.7 221.8 320.1 221.45 320.6 221.05 321.4 221.05 322.2 221.05 322.7 221.45
M 319.35 227.3
Q 319.35 226.65 319.85 226.15 320.25 225.7 321.25 225.25 322.45 225.7 322.9 226.2 323.45 226.65 323.45 227.3 323.45 228.1 322.9 228.55 322.4 228.95 321.4 228.95 320.5 228.95 319.95 228.55 319.35 228.15 319.35 227.3 Z"/>
</g>
</defs>

<g transform="matrix( 1, 0, 0, 1, -208.5,-158.95) ">
<use xlink:href="#Layer0_0_FILL"/>
</g>
</svg>
