
<svg xmlns="http://www.w3.org/2000/svg" version="1.1" xmlns:xlink="http://www.w3.org/1999/xlink" preserveAspectRatio="none" x="0px" y="0px" width="71px" height="71px" viewBox="0 0 71 71">
<defs>
<g id="Layer0_0_FILL">
<path fill="#FF3333" stroke="none" d="
M 275 164.45
Q 260.302734375 164.452734375 249.85 174.8 239.502734375 185.252734375 239.5 199.95 239.5009765625 214.70625 249.85 225 260.3017578125 235.4515625 275 235.45 289.6837890625 235.4537109375 300.05 225.05
L 300.05 225
Q 310.491015625 214.701953125 310.5 199.95 310.5015625 185.2517578125 300.05 174.8 289.7005859375 164.45078125 275 164.45
M 254.8 179.75
Q 263.1974609375 171.446875 275 171.45 286.7990234375 171.448828125 295.1 179.75 303.4982421875 188.148046875 303.5 199.95 303.5087890625 211.7802734375 295.15 220.05
L 295.1 220.05
Q 286.7982421875 228.44609375 275 228.45 263.198046875 228.4482421875 254.8 220.05 246.498828125 211.7935546875 246.5 199.95 246.496875 188.1474609375 254.8 179.75
M 288.2 204.9
Q 287.15078125 204.5408203125 286.05 205 284.9271484375 205.41796875 284.5 206.5 283.543359375 209.0126953125 280.95 210.4
L 280.95 210.4
Q 278.52109375 211.85 275.45 211.85
L 275.4 211.85
Q 272.3923828125 211.9025390625 269.75 210.5 266.9890625 209.015234375 265.5 206.25
L 265.55 206.3
Q 265.1111328125 205.3759765625 263.95 204.9 263.92421875 204.9103515625 263.85 204.9 262.8849609375 204.6046875 261.8 204.95 260.7916015625 205.31796875 260.2 206.25 260.1359375 206.3818359375 260.1 206.5 259.7693359375 207.5703125 260.25 208.45 262.563671875 212.6845703125 266.8 214.95 270.7921875 217.145703125 275.55 217.05
L 275.55 217.05
Q 280.2845703125 217.04453125 284.15 214.8
L 284.15 214.8
Q 288.2462890625 212.3857421875 290 208.3
L 290 208.25
Q 290.48125 207.2630859375 289.8 206.15 289.81484375 206.148828125 289.8 206.1 289.351953125 205.2798828125 288.2 204.9
M 285.65 189.55
Q 284.35 190.75 284.35 192.7 284.35 194.4 285.65 195.7 286.95 196.95 288.7 196.95 290.5 196.95 291.8 195.75 293.1 194.45 293.1 192.65 293.1 190.9 291.8 189.55 290.5 188.2 288.7 188.2 286.95 188.2 285.65 189.55
M 257.8 192.65
Q 257.8 194.4 259.2 195.65 260.45 196.95 262.3 196.95 264.05 196.9 265.4 195.7 266.7 194.45 266.7 192.65 266.7 190.85 265.4 189.5 264.05 188.15 262.3 188.2 260.45 188.2 259.2 189.55 257.8 190.75 257.8 192.65 Z"/>
</g>
</defs>

<g transform="matrix( 1, 0, 0, 1, -239.5,-164.45) ">
<use xlink:href="#Layer0_0_FILL"/>
</g>
</svg>
