
<svg xmlns="http://www.w3.org/2000/svg" version="1.1" xmlns:xlink="http://www.w3.org/1999/xlink" preserveAspectRatio="none" x="0px" y="0px" width="108px" height="75px" viewBox="0 0 108 75">
<defs>
<g id="Layer0_0_FILL">
<path fill="#FF3366" stroke="none" d="
M 327.9 165.85
Q 327.0919921875 164.8982421875 325.85 164.7
L 312 162.55
Q 311.066796875 162.40078125 310.15 162.75 309.28984375 163.1015625 308.7 163.85
L 281.65 198.4
Q 280.5462890625 198.061328125 279.4 197.8 277.6673828125 197.4625 275.85 197.4 275.803125 197.3990234375 275.75 197.4 275.5 197.4 275.2 197.4 274.45 197.3939453125 273.7 197.45
L 273.85 197.45
Q 272.4501953125 197.509375 271.05 197.8 270.9994140625 197.8095703125 270.95 197.8 269.6501953125 198.0775390625 268.4 198.5
L 241.3 163.85
Q 240.710546875 163.0984375 239.8 162.75 238.934375 162.3984375 238 162.55
L 224.15 164.7
Q 222.909375 164.898046875 222.05 165.85 221.236328125 166.7966796875 221.2 168.05 221.1689453125 169.3078125 221.95 170.3
L 254.6 211.95
Q 255.0708984375 212.5513671875 255.7 212.85 255.20625 215.035546875 255.2 217.4 255.2046875 225.7044921875 261 231.5 266.90078125 237.4005859375 275.2 237.4 283.4828125 237.3919921875 289.3 231.55 289.3251953125 231.525 289.35 231.5 295.1919921875 225.6828125 295.2 217.4 295.1943359375 214.9244140625 294.65 212.65 295.0716796875 212.3693359375 295.4 211.95
L 328.05 170.3
Q 328.8326171875 169.3005859375 328.8 168.05 328.7625 166.799609375 327.9 165.85
M 231.1 170.7
L 237.05 169.75 262.3 202.05
Q 261.6466796875 202.602734375 261 203.2 261.00390625 203.2533203125 260.95 203.25 259.73984375 204.5607421875 258.75 205.95
L 231.1 170.7
M 312.9 169.75
L 318.85 170.7 291.45 205.65
Q 290.50390625 204.39765625 289.3 203.2 288.591015625 202.486328125 287.8 201.85
L 312.9 169.75
M 286.05 210.15
L 286 210.05
Q 286.391015625 210.6453125 286.75 211.25 286.7728515625 211.326171875 286.8 211.35 288.211328125 214.1001953125 288.2 217.4 288.2080078125 222.7814453125 284.4 226.55
L 284.35 226.6
Q 280.5814453125 230.4080078125 275.2 230.4 269.7990234375 230.39921875 265.95 226.55 262.1953125 222.7955078125 262.2 217.4 262.1900390625 214.9599609375 262.95 212.85 262.9849609375 212.8240234375 263 212.75 263.484765625 211.3705078125 264.35 210.15 264.4099609375 210.1083984375 264.45 210.05 265.117578125 209.0875 265.95 208.15 266.0005859375 208.1505859375 266 208.1 266.6361328125 207.5236328125 267.35 207 267.4240234375 206.9599609375 267.5 206.9 268.0310546875 206.4873046875 268.6 206.15
L 268.65 206.1
Q 270.3486328125 205.071875 272.35 204.7 272.3900390625 204.6880859375 272.45 204.65 273.3 204.4884765625 274.15 204.45 274.2193359375 204.4509765625 274.3 204.45 274.75 204.4060546875 275.2 204.4 275.5 204.4 275.75 204.4 276.89296875 204.4498046875 278 204.65 280.0029296875 205.0947265625 281.75 206.1 281.8123046875 206.137890625 281.85 206.15 282.39609375 206.5185546875 282.95 206.9 283.6826171875 207.4892578125 284.35 208.15 285.3146484375 209.1216796875 286.05 210.15 Z"/>
</g>

<g id="Layer0_0_MEMBER_0_FILL">
<path fill="#FF3366" stroke="none" d="
M 927.4 1674.25
L 921.65 1678.85 923.5 1681.1 925.55 1679.45
Q 925.9 1679.15 926.85 1678.2
L 926.8 1687.7 924.9 1687.7 924.9 1690.6 926.75 1690.6 926.75 1690.65 930.5 1690.65 930.5 1690.6 932.5 1690.6 932.5 1687.7 930.5 1687.7 930.5 1674.25 927.4 1674.25 Z"/>
</g>
</defs>

<g transform="matrix( 1, 0, 0, 1, -221,-162.45) ">
<use xlink:href="#Layer0_0_FILL"/>
</g>

<g transform="matrix( 1, 0, 0, 1, -873.8,-1626.5) ">
<use xlink:href="#Layer0_0_MEMBER_0_FILL"/>
</g>
</svg>
